<?xml version="1.0" encoding="UTF-8" standalone="no"?>
<!DOCTYPE svg PUBLIC "-//W3C//DTD SVG 1.1//EN"
 "http://www.w3.org/Graphics/SVG/1.1/DTD/svg11.dtd">
<!-- Generated by graphviz version 2.38.0 (20140413.2041)
 -->
<!-- Title: G Pages: 1 -->
<svg width="947pt" height="1870pt"
 viewBox="0.00 0.00 947.24 1869.65" xmlns="http://www.w3.org/2000/svg" xmlns:xlink="http://www.w3.org/1999/xlink">
<g id="graph0" class="graph" transform="scale(1 1) rotate(0) translate(4 1865.65)">
<title>G</title>
<polygon fill="white" stroke="none" points="-4,4 -4,-1865.65 943.236,-1865.65 943.236,4 -4,4"/>
<!-- n1 -->
<g id="node1" class="node"><title>n1</title>
<g id="a_node1"><a xlink:title="[/home/marcin/torch/install/share/lua/5.2/nngraph/init.lua]:76_">
<ellipse fill="yellow" stroke="black" cx="540.643" cy="-180.25" rx="133.787" ry="48.1667"/>
<text text-anchor="middle" x="540.643" y="-199.05" font-family="Times,serif" font-size="14.00">OUTPUT[t]</text>
<text text-anchor="middle" x="540.643" y="-184.05" font-family="Times,serif" font-size="14.00"> (1)</text>
<text text-anchor="start" x="454.143" y="-169.05" font-family="Times,serif" font-size="14.00">reverseMap = {}</text>
<text text-anchor="middle" x="540.643" y="-154.05" font-family="Times,serif" font-size="14.00">module = nn.Linear(256 &#45;&gt; 65)</text>
</a>
</g>
</g>
<!-- n2 -->
<g id="node2" class="node"><title>n2</title>
<g id="a_node2"><a xlink:title="[[C]]:&#45;1_">
<ellipse fill="none" stroke="black" cx="459.643" cy="-48.0833" rx="180.125" ry="48.1667"/>
<text text-anchor="middle" x="459.643" y="-66.8833" font-family="Times,serif" font-size="14.00">Node2</text>
<text text-anchor="start" x="340.143" y="-51.8833" font-family="Times,serif" font-size="14.00">mapindex = {Node1,Node3,Node4,Node5}</text>
<text text-anchor="start" x="340.143" y="-36.8833" font-family="Times,serif" font-size="14.00">reverseMap = {}</text>
<text text-anchor="middle" x="459.643" y="-21.8833" font-family="Times,serif" font-size="14.00">input = {}</text>
</a>
</g>
</g>
<!-- n1&#45;&gt;n2 -->
<g id="edge1" class="edge"><title>n1&#45;&gt;n2</title>
<path fill="none" stroke="black" d="M511.858,-132.991C506.078,-123.704 499.951,-113.858 494.004,-104.301"/>
<polygon fill="black" stroke="black" points="496.864,-102.272 488.609,-95.6312 490.921,-105.971 496.864,-102.272"/>
</g>
<!-- n3 -->
<g id="node3" class="node"><title>n3</title>
<g id="a_node3"><a xlink:title="[/home/marcin/torch/install/share/lua/5.2/nngraph/init.lua]:76_">
<ellipse fill="red" stroke="black" cx="331.643" cy="-1062.99" rx="101.233" ry="48.1667"/>
<text text-anchor="middle" x="331.643" y="-1081.79" font-family="Times,serif" font-size="14.00">HIDDEN STATE[t][1]</text>
<text text-anchor="middle" x="331.643" y="-1066.79" font-family="Times,serif" font-size="14.00"> (3)</text>
<text text-anchor="start" x="268.143" y="-1051.79" font-family="Times,serif" font-size="14.00">reverseMap = {}</text>
<text text-anchor="middle" x="331.643" y="-1036.79" font-family="Times,serif" font-size="14.00">module = nn.Tanh</text>
</a>
</g>
</g>
<!-- n3&#45;&gt;n2 -->
<g id="edge2" class="edge"><title>n3&#45;&gt;n2</title>
<path fill="none" stroke="black" d="M325.736,-1014.95C320.158,-966.413 312.643,-888.474 312.643,-820.869 312.643,-820.869 312.643,-820.869 312.643,-311.416 312.643,-227.263 328.563,-203.227 373.643,-132.167 380.4,-121.516 388.794,-111.241 397.667,-101.763"/>
<polygon fill="black" stroke="black" points="400.415,-103.956 404.864,-94.3407 395.39,-99.0835 400.415,-103.956"/>
</g>
<!-- n11 -->
<g id="node11" class="node"><title>n11</title>
<g id="a_node11"><a xlink:title="[/home/marcin/torch/install/share/lua/5.2/nngraph/init.lua]:76_">
<ellipse fill="none" stroke="black" cx="479.643" cy="-941.429" rx="138.686" ry="37.4533"/>
<text text-anchor="middle" x="479.643" y="-952.729" font-family="Times,serif" font-size="14.00">Node11</text>
<text text-anchor="start" x="389.643" y="-937.729" font-family="Times,serif" font-size="14.00">reverseMap = {}</text>
<text text-anchor="middle" x="479.643" y="-922.729" font-family="Times,serif" font-size="14.00">module = nn.Linear(256 &#45;&gt; 256)</text>
</a>
</g>
</g>
<!-- n3&#45;&gt;n11 -->
<g id="edge17" class="edge"><title>n3&#45;&gt;n11</title>
<path fill="none" stroke="black" d="M382.162,-1021.18C397.141,-1009.08 413.552,-995.82 428.566,-983.691"/>
<polygon fill="black" stroke="black" points="431.166,-986.09 436.745,-977.084 426.767,-980.645 431.166,-986.09"/>
</g>
<!-- n4 -->
<g id="node4" class="node"><title>n4</title>
<g id="a_node4"><a xlink:title="[/home/marcin/torch/install/share/lua/5.2/nngraph/init.lua]:76_">
<ellipse fill="red" stroke="black" cx="582.643" cy="-687.703" rx="101.233" ry="48.1667"/>
<text text-anchor="middle" x="582.643" y="-706.503" font-family="Times,serif" font-size="14.00">HIDDEN STATE[t][2]</text>
<text text-anchor="middle" x="582.643" y="-691.503" font-family="Times,serif" font-size="14.00"> (4)</text>
<text text-anchor="start" x="519.143" y="-676.503" font-family="Times,serif" font-size="14.00">reverseMap = {}</text>
<text text-anchor="middle" x="582.643" y="-661.503" font-family="Times,serif" font-size="14.00">module = nn.Tanh</text>
</a>
</g>
</g>
<!-- n4&#45;&gt;n2 -->
<g id="edge3" class="edge"><title>n4&#45;&gt;n2</title>
<path fill="none" stroke="black" d="M513.906,-652.216C492.65,-639.146 470.434,-622.731 453.643,-603.619 402.328,-545.213 378.643,-523.33 378.643,-445.583 378.643,-445.583 378.643,-445.583 378.643,-311.416 378.643,-231.303 368.423,-206.761 397.643,-132.167 401.474,-122.388 406.779,-112.751 412.688,-103.698"/>
<polygon fill="black" stroke="black" points="415.738,-105.439 418.51,-95.2127 409.966,-101.478 415.738,-105.439"/>
</g>
<!-- n13 -->
<g id="node13" class="node"><title>n13</title>
<g id="a_node13"><a xlink:title="[/home/marcin/torch/install/share/lua/5.2/nngraph/init.lua]:76_">
<ellipse fill="none" stroke="black" cx="601.643" cy="-566.143" rx="138.686" ry="37.4533"/>
<text text-anchor="middle" x="601.643" y="-577.443" font-family="Times,serif" font-size="14.00">Node13</text>
<text text-anchor="start" x="511.643" y="-562.443" font-family="Times,serif" font-size="14.00">reverseMap = {}</text>
<text text-anchor="middle" x="601.643" y="-547.443" font-family="Times,serif" font-size="14.00">module = nn.Linear(256 &#45;&gt; 256)</text>
</a>
</g>
</g>
<!-- n4&#45;&gt;n13 -->
<g id="edge19" class="edge"><title>n4&#45;&gt;n13</title>
<path fill="none" stroke="black" d="M590.152,-639.449C591.495,-631.004 592.892,-622.209 594.232,-613.781"/>
<polygon fill="black" stroke="black" points="597.716,-614.156 595.829,-603.73 590.803,-613.057 597.716,-614.156"/>
</g>
<!-- n5 -->
<g id="node5" class="node"><title>n5</title>
<g id="a_node5"><a xlink:title="[/home/marcin/torch/install/share/lua/5.2/nngraph/init.lua]:76_">
<ellipse fill="red" stroke="black" cx="651.643" cy="-312.416" rx="101.233" ry="48.1667"/>
<text text-anchor="middle" x="651.643" y="-331.216" font-family="Times,serif" font-size="14.00">HIDDEN STATE[t][3]</text>
<text text-anchor="middle" x="651.643" y="-316.216" font-family="Times,serif" font-size="14.00"> (5)</text>
<text text-anchor="start" x="588.143" y="-301.216" font-family="Times,serif" font-size="14.00">reverseMap = {}</text>
<text text-anchor="middle" x="651.643" y="-286.216" font-family="Times,serif" font-size="14.00">module = nn.Tanh</text>
</a>
</g>
</g>
<!-- n5&#45;&gt;n1 -->
<g id="edge5" class="edge"><title>n5&#45;&gt;n1</title>
<path fill="none" stroke="black" d="M614.373,-267.711C605.162,-256.909 595.197,-245.224 585.661,-234.041"/>
<polygon fill="black" stroke="black" points="588.294,-231.734 579.142,-226.396 582.967,-236.276 588.294,-231.734"/>
</g>
<!-- n5&#45;&gt;n2 -->
<g id="edge4" class="edge"><title>n5&#45;&gt;n2</title>
<path fill="none" stroke="black" d="M676.958,-265.849C694.764,-227.041 710.993,-171.481 683.643,-132.167 667.275,-108.638 643.422,-91.7575 617.318,-79.651"/>
<polygon fill="black" stroke="black" points="618.563,-76.3753 607.999,-75.5648 615.752,-82.7861 618.563,-76.3753"/>
</g>
<!-- n6 -->
<g id="node6" class="node"><title>n6</title>
<g id="a_node6"><a xlink:title="[/home/marcin/torch/install/share/lua/5.2/nngraph/init.lua]:69_">
<ellipse fill="none" stroke="black" cx="331.643" cy="-1195.16" rx="128.887" ry="48.1667"/>
<text text-anchor="middle" x="331.643" y="-1213.96" font-family="Times,serif" font-size="14.00">Node6</text>
<text text-anchor="start" x="248.643" y="-1198.96" font-family="Times,serif" font-size="14.00">mapindex = {Node9,Node10}</text>
<text text-anchor="start" x="248.643" y="-1183.96" font-family="Times,serif" font-size="14.00">reverseMap = {}</text>
<text text-anchor="middle" x="331.643" y="-1168.96" font-family="Times,serif" font-size="14.00">module = nn.CAddTable</text>
</a>
</g>
</g>
<!-- n6&#45;&gt;n3 -->
<g id="edge6" class="edge"><title>n6&#45;&gt;n3</title>
<path fill="none" stroke="black" d="M331.643,-1146.79C331.643,-1138.53 331.643,-1129.84 331.643,-1121.34"/>
<polygon fill="black" stroke="black" points="335.143,-1121.1 331.643,-1111.1 328.143,-1121.1 335.143,-1121.1"/>
</g>
<!-- n7 -->
<g id="node7" class="node"><title>n7</title>
<g id="a_node7"><a xlink:title="[/home/marcin/torch/install/share/lua/5.2/nngraph/init.lua]:69_">
<ellipse fill="none" stroke="black" cx="582.643" cy="-819.869" rx="133.787" ry="48.1667"/>
<text text-anchor="middle" x="582.643" y="-838.669" font-family="Times,serif" font-size="14.00">Node7</text>
<text text-anchor="start" x="496.143" y="-823.669" font-family="Times,serif" font-size="14.00">mapindex = {Node11,Node12}</text>
<text text-anchor="start" x="496.143" y="-808.669" font-family="Times,serif" font-size="14.00">reverseMap = {}</text>
<text text-anchor="middle" x="582.643" y="-793.669" font-family="Times,serif" font-size="14.00">module = nn.CAddTable</text>
</a>
</g>
</g>
<!-- n7&#45;&gt;n4 -->
<g id="edge7" class="edge"><title>n7&#45;&gt;n4</title>
<path fill="none" stroke="black" d="M582.643,-771.508C582.643,-763.239 582.643,-754.558 582.643,-746.054"/>
<polygon fill="black" stroke="black" points="586.143,-745.811 582.643,-735.811 579.143,-745.811 586.143,-745.811"/>
</g>
<!-- n8 -->
<g id="node8" class="node"><title>n8</title>
<g id="a_node8"><a xlink:title="[/home/marcin/torch/install/share/lua/5.2/nngraph/init.lua]:69_">
<ellipse fill="none" stroke="black" cx="651.643" cy="-444.583" rx="133.787" ry="48.1667"/>
<text text-anchor="middle" x="651.643" y="-463.383" font-family="Times,serif" font-size="14.00">Node8</text>
<text text-anchor="start" x="565.143" y="-448.383" font-family="Times,serif" font-size="14.00">mapindex = {Node13,Node14}</text>
<text text-anchor="start" x="565.143" y="-433.383" font-family="Times,serif" font-size="14.00">reverseMap = {}</text>
<text text-anchor="middle" x="651.643" y="-418.383" font-family="Times,serif" font-size="14.00">module = nn.CAddTable</text>
</a>
</g>
</g>
<!-- n8&#45;&gt;n5 -->
<g id="edge8" class="edge"><title>n8&#45;&gt;n5</title>
<path fill="none" stroke="black" d="M651.643,-396.222C651.643,-387.953 651.643,-379.271 651.643,-370.768"/>
<polygon fill="black" stroke="black" points="655.143,-370.524 651.643,-360.524 648.143,-370.524 655.143,-370.524"/>
</g>
<!-- n9 -->
<g id="node9" class="node"><title>n9</title>
<g id="a_node9"><a xlink:title="[/home/marcin/torch/install/share/lua/5.2/nngraph/init.lua]:76_">
<ellipse fill="none" stroke="black" cx="133.643" cy="-1327.32" rx="133.787" ry="37.4533"/>
<text text-anchor="middle" x="133.643" y="-1338.62" font-family="Times,serif" font-size="14.00">Node9</text>
<text text-anchor="start" x="47.1432" y="-1323.62" font-family="Times,serif" font-size="14.00">reverseMap = {}</text>
<text text-anchor="middle" x="133.643" y="-1308.62" font-family="Times,serif" font-size="14.00">module = nn.Linear(65 &#45;&gt; 256)</text>
</a>
</g>
</g>
<!-- n9&#45;&gt;n6 -->
<g id="edge9" class="edge"><title>n9&#45;&gt;n6</title>
<path fill="none" stroke="black" d="M184.891,-1292.63C207.95,-1277.47 235.556,-1259.32 260.57,-1242.88"/>
<polygon fill="black" stroke="black" points="262.51,-1245.79 268.944,-1237.37 258.665,-1239.94 262.51,-1245.79"/>
</g>
<!-- n10 -->
<g id="node10" class="node"><title>n10</title>
<g id="a_node10"><a xlink:title="[/home/marcin/torch/install/share/lua/5.2/nngraph/init.lua]:76_">
<ellipse fill="none" stroke="black" cx="423.643" cy="-1327.32" rx="138.686" ry="37.4533"/>
<text text-anchor="middle" x="423.643" y="-1338.62" font-family="Times,serif" font-size="14.00">Node10</text>
<text text-anchor="start" x="333.643" y="-1323.62" font-family="Times,serif" font-size="14.00">reverseMap = {}</text>
<text text-anchor="middle" x="423.643" y="-1308.62" font-family="Times,serif" font-size="14.00">module = nn.Linear(256 &#45;&gt; 256)</text>
</a>
</g>
</g>
<!-- n10&#45;&gt;n6 -->
<g id="edge10" class="edge"><title>n10&#45;&gt;n6</title>
<path fill="none" stroke="black" d="M398.26,-1290.41C389.451,-1277.95 379.37,-1263.68 369.762,-1250.09"/>
<polygon fill="black" stroke="black" points="372.487,-1247.88 363.857,-1241.73 366.77,-1251.92 372.487,-1247.88"/>
</g>
<!-- n11&#45;&gt;n7 -->
<g id="edge11" class="edge"><title>n11&#45;&gt;n7</title>
<path fill="none" stroke="black" d="M510.547,-904.557C518.857,-894.91 528.025,-884.269 536.956,-873.902"/>
<polygon fill="black" stroke="black" points="539.846,-875.909 543.722,-866.048 534.543,-871.34 539.846,-875.909"/>
</g>
<!-- n12 -->
<g id="node12" class="node"><title>n12</title>
<g id="a_node12"><a xlink:title="[/home/marcin/torch/install/share/lua/5.2/nngraph/init.lua]:76_">
<ellipse fill="none" stroke="black" cx="627.643" cy="-1062.99" rx="138.686" ry="37.4533"/>
<text text-anchor="middle" x="627.643" y="-1074.29" font-family="Times,serif" font-size="14.00">Node12</text>
<text text-anchor="start" x="537.643" y="-1059.29" font-family="Times,serif" font-size="14.00">reverseMap = {}</text>
<text text-anchor="middle" x="627.643" y="-1044.29" font-family="Times,serif" font-size="14.00">module = nn.Linear(256 &#45;&gt; 256)</text>
</a>
</g>
</g>
<!-- n12&#45;&gt;n7 -->
<g id="edge12" class="edge"><title>n12&#45;&gt;n7</title>
<path fill="none" stroke="black" d="M632.683,-1025.27C635.954,-992.83 637.922,-944.512 627.643,-903.952 625.28,-894.629 621.639,-885.218 617.43,-876.249"/>
<polygon fill="black" stroke="black" points="620.457,-874.476 612.866,-867.084 614.19,-877.596 620.457,-874.476"/>
</g>
<!-- n13&#45;&gt;n8 -->
<g id="edge13" class="edge"><title>n13&#45;&gt;n8</title>
<path fill="none" stroke="black" d="M616.917,-528.621C620.455,-520.16 624.301,-510.963 628.102,-501.874"/>
<polygon fill="black" stroke="black" points="631.403,-503.053 632.032,-492.477 624.945,-500.352 631.403,-503.053"/>
</g>
<!-- n14 -->
<g id="node14" class="node"><title>n14</title>
<g id="a_node14"><a xlink:title="[/home/marcin/torch/install/share/lua/5.2/nngraph/init.lua]:76_">
<ellipse fill="none" stroke="black" cx="800.643" cy="-1195.16" rx="138.686" ry="37.4533"/>
<text text-anchor="middle" x="800.643" y="-1206.46" font-family="Times,serif" font-size="14.00">Node14</text>
<text text-anchor="start" x="710.643" y="-1191.46" font-family="Times,serif" font-size="14.00">reverseMap = {}</text>
<text text-anchor="middle" x="800.643" y="-1176.46" font-family="Times,serif" font-size="14.00">module = nn.Linear(256 &#45;&gt; 256)</text>
</a>
</g>
</g>
<!-- n14&#45;&gt;n8 -->
<g id="edge14" class="edge"><title>n14&#45;&gt;n8</title>
<path fill="none" stroke="black" d="M799.695,-1157.47C798.512,-1108.46 796.643,-1018.92 796.643,-942.429 796.643,-942.429 796.643,-942.429 796.643,-686.703 796.643,-613.424 789.699,-590.028 749.643,-528.666 741.569,-516.298 731.115,-504.769 720.053,-494.473"/>
<polygon fill="black" stroke="black" points="722.103,-491.611 712.319,-487.547 717.433,-496.825 722.103,-491.611"/>
</g>
<!-- n15 -->
<g id="node15" class="node"><title>n15</title>
<g id="a_node15"><a xlink:title="[main.lua]:53_">
<ellipse fill="yellow" stroke="black" cx="167.643" cy="-1459.49" rx="94.0904" ry="48.1667"/>
<text text-anchor="middle" x="167.643" y="-1478.29" font-family="Times,serif" font-size="14.00">INPUT[t]</text>
<text text-anchor="middle" x="167.643" y="-1463.29" font-family="Times,serif" font-size="14.00"> (15)</text>
<text text-anchor="start" x="109.143" y="-1448.29" font-family="Times,serif" font-size="14.00">reverseMap = {}</text>
<text text-anchor="middle" x="167.643" y="-1433.29" font-family="Times,serif" font-size="14.00">module = nn.Identity</text>
</a>
</g>
</g>
<!-- n15&#45;&gt;n9 -->
<g id="edge15" class="edge"><title>n15&#45;&gt;n9</title>
<path fill="none" stroke="black" d="M155.368,-1411.5C152.248,-1399.55 148.896,-1386.72 145.782,-1374.8"/>
<polygon fill="black" stroke="black" points="149.147,-1373.83 143.233,-1365.04 142.374,-1375.6 149.147,-1373.83"/>
</g>
<!-- n16 -->
<g id="node16" class="node"><title>n16</title>
<g id="a_node16"><a xlink:title="[main.lua]:55_">
<ellipse fill="lightblue" stroke="black" cx="388.643" cy="-1459.49" rx="108.789" ry="48.1667"/>
<text text-anchor="middle" x="388.643" y="-1478.29" font-family="Times,serif" font-size="14.00">HIDDEN STATE[t&#45;1][1]</text>
<text text-anchor="middle" x="388.643" y="-1463.29" font-family="Times,serif" font-size="14.00"> (16)</text>
<text text-anchor="start" x="319.643" y="-1448.29" font-family="Times,serif" font-size="14.00">reverseMap = {}</text>
<text text-anchor="middle" x="388.643" y="-1433.29" font-family="Times,serif" font-size="14.00">module = nn.Identity</text>
</a>
</g>
</g>
<!-- n16&#45;&gt;n10 -->
<g id="edge16" class="edge"><title>n16&#45;&gt;n10</title>
<path fill="none" stroke="black" d="M401.279,-1411.5C404.491,-1399.55 407.941,-1386.72 411.147,-1374.8"/>
<polygon fill="black" stroke="black" points="414.555,-1375.6 413.771,-1365.04 407.795,-1373.78 414.555,-1375.6"/>
</g>
<!-- n17 -->
<g id="node17" class="node"><title>n17</title>
<g id="a_node17"><a xlink:title="[main.lua]:55_">
<ellipse fill="lightblue" stroke="black" cx="624.643" cy="-1459.49" rx="108.789" ry="48.1667"/>
<text text-anchor="middle" x="624.643" y="-1478.29" font-family="Times,serif" font-size="14.00">HIDDEN STATE[t&#45;1][2]</text>
<text text-anchor="middle" x="624.643" y="-1463.29" font-family="Times,serif" font-size="14.00"> (17)</text>
<text text-anchor="start" x="555.643" y="-1448.29" font-family="Times,serif" font-size="14.00">reverseMap = {}</text>
<text text-anchor="middle" x="624.643" y="-1433.29" font-family="Times,serif" font-size="14.00">module = nn.Identity</text>
</a>
</g>
</g>
<!-- n17&#45;&gt;n12 -->
<g id="edge18" class="edge"><title>n17&#45;&gt;n12</title>
<path fill="none" stroke="black" d="M625.002,-1411.29C625.58,-1335.31 626.71,-1186.73 627.286,-1110.92"/>
<polygon fill="black" stroke="black" points="630.788,-1110.74 627.364,-1100.72 623.788,-1110.69 630.788,-1110.74"/>
</g>
<!-- n18 -->
<g id="node18" class="node"><title>n18</title>
<g id="a_node18"><a xlink:title="[main.lua]:55_">
<ellipse fill="lightblue" stroke="black" cx="819.643" cy="-1327.32" rx="108.789" ry="48.1667"/>
<text text-anchor="middle" x="819.643" y="-1346.12" font-family="Times,serif" font-size="14.00">HIDDEN STATE[t&#45;1][3]</text>
<text text-anchor="middle" x="819.643" y="-1331.12" font-family="Times,serif" font-size="14.00"> (18)</text>
<text text-anchor="start" x="750.643" y="-1316.12" font-family="Times,serif" font-size="14.00">reverseMap = {}</text>
<text text-anchor="middle" x="819.643" y="-1301.12" font-family="Times,serif" font-size="14.00">module = nn.Identity</text>
</a>
</g>
</g>
<!-- n18&#45;&gt;n14 -->
<g id="edge20" class="edge"><title>n18&#45;&gt;n14</title>
<path fill="none" stroke="black" d="M812.784,-1279.33C811.057,-1267.5 809.204,-1254.81 807.479,-1242.99"/>
<polygon fill="black" stroke="black" points="810.91,-1242.26 806.002,-1232.87 803.983,-1243.27 810.91,-1242.26"/>
</g>
<!-- n19 -->
<g id="node19" class="node"><title>n19</title>
<g id="a_node19"><a xlink:title="[[C]]:&#45;1_&#45;1">
<ellipse fill="none" stroke="black" cx="198.643" cy="-1591.66" rx="77.5641" ry="48.1667"/>
<text text-anchor="middle" x="198.643" y="-1610.46" font-family="Times,serif" font-size="14.00">Node19</text>
<text text-anchor="start" x="151.643" y="-1595.46" font-family="Times,serif" font-size="14.00">reverseMap = {}</text>
<text text-anchor="start" x="151.643" y="-1580.46" font-family="Times,serif" font-size="14.00">input = {}</text>
<text text-anchor="middle" x="198.643" y="-1565.46" font-family="Times,serif" font-size="14.00">selectindex = 1</text>
</a>
</g>
</g>
<!-- n19&#45;&gt;n15 -->
<g id="edge21" class="edge"><title>n19&#45;&gt;n15</title>
<path fill="none" stroke="black" d="M187.539,-1544.03C185.494,-1535.44 183.338,-1526.39 181.23,-1517.54"/>
<polygon fill="black" stroke="black" points="184.6,-1516.58 178.878,-1507.66 177.79,-1518.2 184.6,-1516.58"/>
</g>
<!-- n20 -->
<g id="node20" class="node"><title>n20</title>
<g id="a_node20"><a xlink:title="[[C]]:&#45;1_&#45;2">
<ellipse fill="none" stroke="black" cx="403.643" cy="-1591.66" rx="77.5641" ry="48.1667"/>
<text text-anchor="middle" x="403.643" y="-1610.46" font-family="Times,serif" font-size="14.00">Node20</text>
<text text-anchor="start" x="356.643" y="-1595.46" font-family="Times,serif" font-size="14.00">reverseMap = {}</text>
<text text-anchor="start" x="356.643" y="-1580.46" font-family="Times,serif" font-size="14.00">input = {}</text>
<text text-anchor="middle" x="403.643" y="-1565.46" font-family="Times,serif" font-size="14.00">selectindex = 2</text>
</a>
</g>
</g>
<!-- n20&#45;&gt;n16 -->
<g id="edge22" class="edge"><title>n20&#45;&gt;n16</title>
<path fill="none" stroke="black" d="M398.228,-1543.66C397.263,-1535.29 396.248,-1526.48 395.254,-1517.85"/>
<polygon fill="black" stroke="black" points="398.723,-1517.38 394.101,-1507.85 391.769,-1518.18 398.723,-1517.38"/>
</g>
<!-- n21 -->
<g id="node21" class="node"><title>n21</title>
<g id="a_node21"><a xlink:title="[[C]]:&#45;1_&#45;3">
<ellipse fill="none" stroke="black" cx="608.643" cy="-1591.66" rx="77.5641" ry="48.1667"/>
<text text-anchor="middle" x="608.643" y="-1610.46" font-family="Times,serif" font-size="14.00">Node21</text>
<text text-anchor="start" x="561.643" y="-1595.46" font-family="Times,serif" font-size="14.00">reverseMap = {}</text>
<text text-anchor="start" x="561.643" y="-1580.46" font-family="Times,serif" font-size="14.00">input = {}</text>
<text text-anchor="middle" x="608.643" y="-1565.46" font-family="Times,serif" font-size="14.00">selectindex = 3</text>
</a>
</g>
</g>
<!-- n21&#45;&gt;n17 -->
<g id="edge23" class="edge"><title>n21&#45;&gt;n17</title>
<path fill="none" stroke="black" d="M614.42,-1543.66C615.449,-1535.29 616.532,-1526.48 617.592,-1517.85"/>
<polygon fill="black" stroke="black" points="621.075,-1518.2 618.822,-1507.85 614.128,-1517.35 621.075,-1518.2"/>
</g>
<!-- n22 -->
<g id="node22" class="node"><title>n22</title>
<g id="a_node22"><a xlink:title="[[C]]:&#45;1_&#45;4">
<ellipse fill="none" stroke="black" cx="829.643" cy="-1459.49" rx="77.5641" ry="48.1667"/>
<text text-anchor="middle" x="829.643" y="-1478.29" font-family="Times,serif" font-size="14.00">Node22</text>
<text text-anchor="start" x="782.643" y="-1463.29" font-family="Times,serif" font-size="14.00">reverseMap = {}</text>
<text text-anchor="start" x="782.643" y="-1448.29" font-family="Times,serif" font-size="14.00">input = {}</text>
<text text-anchor="middle" x="829.643" y="-1433.29" font-family="Times,serif" font-size="14.00">selectindex = 4</text>
</a>
</g>
</g>
<!-- n22&#45;&gt;n18 -->
<g id="edge24" class="edge"><title>n22&#45;&gt;n18</title>
<path fill="none" stroke="black" d="M826.005,-1411.13C825.369,-1402.86 824.702,-1394.18 824.049,-1385.67"/>
<polygon fill="black" stroke="black" points="827.518,-1385.13 823.262,-1375.43 820.539,-1385.67 827.518,-1385.13"/>
</g>
<!-- n23 -->
<g id="node23" class="node"><title>n23</title>
<g id="a_node23"><a xlink:title="[[C]]:&#45;1_ split at [...e/marcin/torch/install/share/lua/5.2/nngraph/gmodule.lua]:96&#45;mnode">
<ellipse fill="none" stroke="black" cx="505.643" cy="-1713.22" rx="80.7205" ry="37.4533"/>
<text text-anchor="middle" x="505.643" y="-1724.52" font-family="Times,serif" font-size="14.00">Node23</text>
<text text-anchor="start" x="456.643" y="-1709.52" font-family="Times,serif" font-size="14.00">reverseMap = {}</text>
<text text-anchor="middle" x="505.643" y="-1694.52" font-family="Times,serif" font-size="14.00">nSplitOutputs = 4</text>
</a>
</g>
</g>
<!-- n23&#45;&gt;n19 -->
<g id="edge25" class="edge"><title>n23&#45;&gt;n19</title>
<path fill="none" stroke="black" d="M443.85,-1688.76C406.892,-1674.67 359.025,-1656.32 316.643,-1639.74 302.405,-1634.17 287.226,-1628.16 272.66,-1622.37"/>
<polygon fill="black" stroke="black" points="273.778,-1619.04 263.192,-1618.59 271.186,-1625.55 273.778,-1619.04"/>
</g>
<!-- n23&#45;&gt;n20 -->
<g id="edge26" class="edge"><title>n23&#45;&gt;n20</title>
<path fill="none" stroke="black" d="M476.414,-1677.95C466.949,-1666.86 456.252,-1654.32 446.031,-1642.34"/>
<polygon fill="black" stroke="black" points="448.554,-1639.9 439.401,-1634.57 443.228,-1644.45 448.554,-1639.9"/>
</g>
<!-- n23&#45;&gt;n21 -->
<g id="edge27" class="edge"><title>n23&#45;&gt;n21</title>
<path fill="none" stroke="black" d="M534.883,-1678.27C544.543,-1667.06 555.497,-1654.35 565.952,-1642.21"/>
<polygon fill="black" stroke="black" points="568.857,-1644.2 572.732,-1634.34 563.553,-1639.63 568.857,-1644.2"/>
</g>
<!-- n23&#45;&gt;n22 -->
<g id="edge28" class="edge"><title>n23&#45;&gt;n22</title>
<path fill="none" stroke="black" d="M576.77,-1695.45C614.666,-1684.09 660.563,-1666.22 695.643,-1639.74 740.185,-1606.11 776.928,-1553.79 800.602,-1514.34"/>
<polygon fill="black" stroke="black" points="803.678,-1516.01 805.747,-1505.62 797.65,-1512.45 803.678,-1516.01"/>
</g>
<!-- n24 -->
<g id="node24" class="node"><title>n24</title>
<g id="a_node24"><a xlink:title="[[C]]:&#45;1_">
<ellipse fill="none" stroke="black" cx="505.643" cy="-1824.17" rx="77.5641" ry="37.4533"/>
<text text-anchor="middle" x="505.643" y="-1835.47" font-family="Times,serif" font-size="14.00">Node24</text>
<text text-anchor="start" x="458.643" y="-1820.47" font-family="Times,serif" font-size="14.00">reverseMap = {}</text>
<text text-anchor="middle" x="505.643" y="-1805.47" font-family="Times,serif" font-size="14.00">input = {}</text>
</a>
</g>
</g>
<!-- n24&#45;&gt;n23 -->
<g id="edge29" class="edge"><title>n24&#45;&gt;n23</title>
<path fill="none" stroke="black" d="M505.643,-1786.59C505.643,-1778.41 505.643,-1769.63 505.643,-1761.1"/>
<polygon fill="black" stroke="black" points="509.143,-1760.89 505.643,-1750.89 502.143,-1760.89 509.143,-1760.89"/>
</g>
</g>
</svg>
