<?xml version="1.0" encoding="UTF-8" standalone="no"?>
<!DOCTYPE svg PUBLIC "-//W3C//DTD SVG 1.1//EN"
 "http://www.w3.org/Graphics/SVG/1.1/DTD/svg11.dtd">
<!-- Generated by graphviz version 2.38.0 (20140413.2041)
 -->
<!-- Title: G Pages: 1 -->
<svg width="1203pt" height="1494pt"
 viewBox="0.00 0.00 1203.29 1494.36" xmlns="http://www.w3.org/2000/svg" xmlns:xlink="http://www.w3.org/1999/xlink">
<g id="graph0" class="graph" transform="scale(1 1) rotate(0) translate(4 1490.36)">
<title>G</title>
<polygon fill="white" stroke="none" points="-4,4 -4,-1490.36 1199.29,-1490.36 1199.29,4 -4,4"/>
<!-- n1 -->
<g id="node1" class="node"><title>n1</title>
<g id="a_node1"><a xlink:title="[/home/marcin/torch/install/share/lua/5.3/nngraph/init.lua]:76_">
<ellipse fill="#aaffaa" stroke="black" cx="452.643" cy="-190.856" rx="133.787" ry="58.8803"/>
<text text-anchor="middle" x="452.643" y="-217.156" font-family="Times,serif" font-size="14.00">OUTPUT</text>
<text text-anchor="middle" x="452.643" y="-202.156" font-family="Times,serif" font-size="14.00">HEAD[1]</text>
<text text-anchor="middle" x="452.643" y="-187.156" font-family="Times,serif" font-size="14.00"> (1)</text>
<text text-anchor="start" x="366.143" y="-172.156" font-family="Times,serif" font-size="14.00">module = nn.Linear(256 &#45;&gt; 40)</text>
<text text-anchor="middle" x="452.643" y="-157.156" font-family="Times,serif" font-size="14.00">reverseMap = {}</text>
</a>
</g>
</g>
<!-- n2 -->
<g id="node2" class="node"><title>n2</title>
<g id="a_node2"><a xlink:title="[[C]]:&#45;1_">
<ellipse fill="none" stroke="black" cx="614.643" cy="-48.0833" rx="208.693" ry="48.1667"/>
<text text-anchor="middle" x="614.643" y="-66.8833" font-family="Times,serif" font-size="14.00">Node2</text>
<text text-anchor="start" x="475.143" y="-51.8833" font-family="Times,serif" font-size="14.00">input = {}</text>
<text text-anchor="start" x="475.143" y="-36.8833" font-family="Times,serif" font-size="14.00">mapindex = {Node1,Node3,Node4,Node5,Node6}</text>
<text text-anchor="middle" x="614.643" y="-21.8833" font-family="Times,serif" font-size="14.00">reverseMap = {}</text>
</a>
</g>
</g>
<!-- n1&#45;&gt;n2 -->
<g id="edge1" class="edge"><title>n1&#45;&gt;n2</title>
<path fill="none" stroke="black" d="M512.046,-138.237C525.913,-126.187 540.691,-113.345 554.586,-101.271"/>
<polygon fill="black" stroke="black" points="556.951,-103.853 562.204,-94.6515 552.36,-98.5689 556.951,-103.853"/>
</g>
<!-- n3 -->
<g id="node3" class="node"><title>n3</title>
<g id="a_node3"><a xlink:title="[/home/marcin/torch/install/share/lua/5.3/nngraph/init.lua]:76_">
<ellipse fill="#aaffaa" stroke="black" cx="776.643" cy="-190.856" rx="133.787" ry="58.8803"/>
<text text-anchor="middle" x="776.643" y="-217.156" font-family="Times,serif" font-size="14.00">OUTPUT</text>
<text text-anchor="middle" x="776.643" y="-202.156" font-family="Times,serif" font-size="14.00">HEAD[2]</text>
<text text-anchor="middle" x="776.643" y="-187.156" font-family="Times,serif" font-size="14.00"> (3)</text>
<text text-anchor="start" x="690.143" y="-172.156" font-family="Times,serif" font-size="14.00">module = nn.Linear(256 &#45;&gt; 40)</text>
<text text-anchor="middle" x="776.643" y="-157.156" font-family="Times,serif" font-size="14.00">reverseMap = {}</text>
</a>
</g>
</g>
<!-- n3&#45;&gt;n2 -->
<g id="edge2" class="edge"><title>n3&#45;&gt;n2</title>
<path fill="none" stroke="black" d="M717.24,-138.237C703.373,-126.187 688.595,-113.345 674.7,-101.271"/>
<polygon fill="black" stroke="black" points="676.927,-98.5689 667.083,-94.6515 672.335,-103.853 676.927,-98.5689"/>
</g>
<!-- n4 -->
<g id="node4" class="node"><title>n4</title>
<g id="a_node4"><a xlink:title="[/home/marcin/torch/install/share/lua/5.3/nngraph/init.lua]:76_">
<ellipse fill="#aaffaa" stroke="black" cx="1061.64" cy="-190.856" rx="133.787" ry="58.8803"/>
<text text-anchor="middle" x="1061.64" y="-217.156" font-family="Times,serif" font-size="14.00">OUTPUT</text>
<text text-anchor="middle" x="1061.64" y="-202.156" font-family="Times,serif" font-size="14.00">HEAD[3]</text>
<text text-anchor="middle" x="1061.64" y="-187.156" font-family="Times,serif" font-size="14.00"> (4)</text>
<text text-anchor="start" x="975.143" y="-172.156" font-family="Times,serif" font-size="14.00">module = nn.Linear(256 &#45;&gt; 40)</text>
<text text-anchor="middle" x="1061.64" y="-157.156" font-family="Times,serif" font-size="14.00">reverseMap = {}</text>
</a>
</g>
</g>
<!-- n4&#45;&gt;n2 -->
<g id="edge3" class="edge"><title>n4&#45;&gt;n2</title>
<path fill="none" stroke="black" d="M966.755,-149.479C951.132,-143.36 935.021,-137.364 919.643,-132.167 869.926,-115.363 814.795,-99.5208 765.232,-86.2658"/>
<polygon fill="black" stroke="black" points="765.96,-82.8379 755.396,-83.6498 764.161,-89.6027 765.96,-82.8379"/>
</g>
<!-- n5 -->
<g id="node5" class="node"><title>n5</title>
<g id="a_node5"><a xlink:title="[/home/marcin/torch/install/share/lua/5.3/nngraph/init.lua]:76_">
<ellipse fill="#ffaaaa" stroke="black" cx="314.643" cy="-708.916" rx="101.233" ry="48.1667"/>
<text text-anchor="middle" x="314.643" y="-727.716" font-family="Times,serif" font-size="14.00">HIDDEN STATE[t][1]</text>
<text text-anchor="middle" x="314.643" y="-712.716" font-family="Times,serif" font-size="14.00"> (5)</text>
<text text-anchor="start" x="251.143" y="-697.716" font-family="Times,serif" font-size="14.00">module = nn.Tanh</text>
<text text-anchor="middle" x="314.643" y="-682.716" font-family="Times,serif" font-size="14.00">reverseMap = {}</text>
</a>
</g>
</g>
<!-- n5&#45;&gt;n2 -->
<g id="edge4" class="edge"><title>n5&#45;&gt;n2</title>
<path fill="none" stroke="black" d="M307.181,-660.927C300.136,-612.432 290.643,-534.525 290.643,-466.796 290.643,-466.796 290.643,-466.796 290.643,-332.63 290.643,-243.136 252.012,-200.634 309.643,-132.167 327.893,-110.486 381.056,-92.776 437.993,-79.3622"/>
<polygon fill="black" stroke="black" points="438.948,-82.7339 447.906,-77.0773 437.375,-75.9127 438.948,-82.7339"/>
</g>
<!-- n11 -->
<g id="node11" class="node"><title>n11</title>
<g id="a_node11"><a xlink:title="[/home/marcin/torch/install/share/lua/5.3/nngraph/init.lua]:76_">
<ellipse fill="none" stroke="black" cx="457.643" cy="-587.356" rx="138.686" ry="37.4533"/>
<text text-anchor="middle" x="457.643" y="-598.656" font-family="Times,serif" font-size="14.00">Node11</text>
<text text-anchor="start" x="367.643" y="-583.656" font-family="Times,serif" font-size="14.00">module = nn.Linear(256 &#45;&gt; 256)</text>
<text text-anchor="middle" x="457.643" y="-568.656" font-family="Times,serif" font-size="14.00">reverseMap = {}</text>
</a>
</g>
</g>
<!-- n5&#45;&gt;n11 -->
<g id="edge17" class="edge"><title>n5&#45;&gt;n11</title>
<path fill="none" stroke="black" d="M363.856,-666.77C378.171,-654.802 393.81,-641.726 408.143,-629.742"/>
<polygon fill="black" stroke="black" points="410.528,-632.311 415.954,-623.211 406.038,-626.94 410.528,-632.311"/>
</g>
<!-- n6 -->
<g id="node6" class="node"><title>n6</title>
<g id="a_node6"><a xlink:title="[/home/marcin/torch/install/share/lua/5.3/nngraph/init.lua]:76_">
<ellipse fill="#ffaaaa" stroke="black" cx="619.643" cy="-333.63" rx="101.233" ry="48.1667"/>
<text text-anchor="middle" x="619.643" y="-352.43" font-family="Times,serif" font-size="14.00">HIDDEN STATE[t][2]</text>
<text text-anchor="middle" x="619.643" y="-337.43" font-family="Times,serif" font-size="14.00"> (6)</text>
<text text-anchor="start" x="556.143" y="-322.43" font-family="Times,serif" font-size="14.00">module = nn.Tanh</text>
<text text-anchor="middle" x="619.643" y="-307.43" font-family="Times,serif" font-size="14.00">reverseMap = {}</text>
</a>
</g>
</g>
<!-- n6&#45;&gt;n1 -->
<g id="edge6" class="edge"><title>n6&#45;&gt;n1</title>
<path fill="none" stroke="black" d="M570.441,-291.154C555.145,-278.26 537.99,-263.799 521.605,-249.988"/>
<polygon fill="black" stroke="black" points="523.537,-247.039 513.636,-243.27 519.026,-252.391 523.537,-247.039"/>
</g>
<!-- n6&#45;&gt;n2 -->
<g id="edge5" class="edge"><title>n6&#45;&gt;n2</title>
<path fill="none" stroke="black" d="M618.812,-285.489C617.945,-236.327 616.585,-159.225 615.656,-106.534"/>
<polygon fill="black" stroke="black" points="619.152,-106.273 615.476,-96.3362 612.153,-106.396 619.152,-106.273"/>
</g>
<!-- n6&#45;&gt;n3 -->
<g id="edge7" class="edge"><title>n6&#45;&gt;n3</title>
<path fill="none" stroke="black" d="M666.323,-290.774C680.332,-278.213 695.969,-264.193 710.964,-250.748"/>
<polygon fill="black" stroke="black" points="713.626,-253.062 718.734,-243.78 708.953,-247.85 713.626,-253.062"/>
</g>
<!-- n6&#45;&gt;n4 -->
<g id="edge8" class="edge"><title>n6&#45;&gt;n4</title>
<path fill="none" stroke="black" d="M708.742,-310.841C768.857,-295.437 849.679,-273.357 919.643,-249.546 931.888,-245.379 944.603,-240.714 957.167,-235.891"/>
<polygon fill="black" stroke="black" points="958.679,-239.059 966.736,-232.178 956.147,-232.533 958.679,-239.059"/>
</g>
<!-- n7 -->
<g id="node7" class="node"><title>n7</title>
<g id="a_node7"><a xlink:title="[/home/marcin/torch/install/share/lua/5.3/nngraph/init.lua]:69_">
<ellipse fill="none" stroke="black" cx="314.643" cy="-841.082" rx="128.887" ry="48.1667"/>
<text text-anchor="middle" x="314.643" y="-859.882" font-family="Times,serif" font-size="14.00">Node7</text>
<text text-anchor="start" x="231.643" y="-844.882" font-family="Times,serif" font-size="14.00">module = nn.CAddTable</text>
<text text-anchor="start" x="231.643" y="-829.882" font-family="Times,serif" font-size="14.00">mapindex = {Node9,Node10}</text>
<text text-anchor="middle" x="314.643" y="-814.882" font-family="Times,serif" font-size="14.00">reverseMap = {}</text>
</a>
</g>
</g>
<!-- n7&#45;&gt;n5 -->
<g id="edge9" class="edge"><title>n7&#45;&gt;n5</title>
<path fill="none" stroke="black" d="M314.643,-792.721C314.643,-784.452 314.643,-775.771 314.643,-767.268"/>
<polygon fill="black" stroke="black" points="318.143,-767.024 314.643,-757.024 311.143,-767.024 318.143,-767.024"/>
</g>
<!-- n8 -->
<g id="node8" class="node"><title>n8</title>
<g id="a_node8"><a xlink:title="[/home/marcin/torch/install/share/lua/5.3/nngraph/init.lua]:69_">
<ellipse fill="none" stroke="black" cx="619.643" cy="-465.796" rx="133.787" ry="48.1667"/>
<text text-anchor="middle" x="619.643" y="-484.596" font-family="Times,serif" font-size="14.00">Node8</text>
<text text-anchor="start" x="533.143" y="-469.596" font-family="Times,serif" font-size="14.00">module = nn.CAddTable</text>
<text text-anchor="start" x="533.143" y="-454.596" font-family="Times,serif" font-size="14.00">mapindex = {Node11,Node12}</text>
<text text-anchor="middle" x="619.643" y="-439.596" font-family="Times,serif" font-size="14.00">reverseMap = {}</text>
</a>
</g>
</g>
<!-- n8&#45;&gt;n6 -->
<g id="edge10" class="edge"><title>n8&#45;&gt;n6</title>
<path fill="none" stroke="black" d="M619.643,-417.435C619.643,-409.166 619.643,-400.484 619.643,-391.981"/>
<polygon fill="black" stroke="black" points="623.143,-391.738 619.643,-381.738 616.143,-391.738 623.143,-391.738"/>
</g>
<!-- n9 -->
<g id="node9" class="node"><title>n9</title>
<g id="a_node9"><a xlink:title="[/home/marcin/torch/install/share/lua/5.3/nngraph/init.lua]:76_">
<ellipse fill="none" stroke="black" cx="133.643" cy="-962.642" rx="133.787" ry="37.4533"/>
<text text-anchor="middle" x="133.643" y="-973.942" font-family="Times,serif" font-size="14.00">Node9</text>
<text text-anchor="start" x="47.1432" y="-958.942" font-family="Times,serif" font-size="14.00">module = nn.Linear(40 &#45;&gt; 256)</text>
<text text-anchor="middle" x="133.643" y="-943.942" font-family="Times,serif" font-size="14.00">reverseMap = {}</text>
</a>
</g>
</g>
<!-- n9&#45;&gt;n7 -->
<g id="edge11" class="edge"><title>n9&#45;&gt;n7</title>
<path fill="none" stroke="black" d="M185.026,-927.701C203.235,-915.673 224.059,-901.918 243.611,-889.003"/>
<polygon fill="black" stroke="black" points="245.78,-891.765 252.195,-883.333 241.922,-885.924 245.78,-891.765"/>
</g>
<!-- n10 -->
<g id="node10" class="node"><title>n10</title>
<g id="a_node10"><a xlink:title="[/home/marcin/torch/install/share/lua/5.3/nngraph/init.lua]:76_">
<ellipse fill="none" stroke="black" cx="423.643" cy="-962.642" rx="138.686" ry="37.4533"/>
<text text-anchor="middle" x="423.643" y="-973.942" font-family="Times,serif" font-size="14.00">Node10</text>
<text text-anchor="start" x="333.643" y="-958.942" font-family="Times,serif" font-size="14.00">module = nn.Linear(256 &#45;&gt; 256)</text>
<text text-anchor="middle" x="423.643" y="-943.942" font-family="Times,serif" font-size="14.00">reverseMap = {}</text>
</a>
</g>
</g>
<!-- n10&#45;&gt;n7 -->
<g id="edge12" class="edge"><title>n10&#45;&gt;n7</title>
<path fill="none" stroke="black" d="M391.235,-926.094C382.246,-916.235 372.292,-905.317 362.617,-894.704"/>
<polygon fill="black" stroke="black" points="364.963,-892.082 355.639,-887.05 359.79,-896.798 364.963,-892.082"/>
</g>
<!-- n11&#45;&gt;n8 -->
<g id="edge13" class="edge"><title>n11&#45;&gt;n8</title>
<path fill="none" stroke="black" d="M504.5,-551.774C519.779,-540.498 537.041,-527.758 553.462,-515.639"/>
<polygon fill="black" stroke="black" points="555.99,-518.124 561.958,-509.369 551.833,-512.491 555.99,-518.124"/>
</g>
<!-- n12 -->
<g id="node12" class="node"><title>n12</title>
<g id="a_node12"><a xlink:title="[/home/marcin/torch/install/share/lua/5.3/nngraph/init.lua]:76_">
<ellipse fill="none" stroke="black" cx="624.643" cy="-841.082" rx="138.686" ry="37.4533"/>
<text text-anchor="middle" x="624.643" y="-852.382" font-family="Times,serif" font-size="14.00">Node12</text>
<text text-anchor="start" x="534.643" y="-837.382" font-family="Times,serif" font-size="14.00">module = nn.Linear(256 &#45;&gt; 256)</text>
<text text-anchor="middle" x="624.643" y="-822.382" font-family="Times,serif" font-size="14.00">reverseMap = {}</text>
</a>
</g>
</g>
<!-- n12&#45;&gt;n8 -->
<g id="edge14" class="edge"><title>n12&#45;&gt;n8</title>
<path fill="none" stroke="black" d="M624.15,-803.269C623.276,-738.049 621.451,-601.788 620.412,-524.163"/>
<polygon fill="black" stroke="black" points="623.91,-524.026 620.276,-514.074 616.911,-524.12 623.91,-524.026"/>
</g>
<!-- n13 -->
<g id="node13" class="node"><title>n13</title>
<g id="a_node13"><a xlink:title="[./RNN.lua]:8_">
<ellipse fill="#ffffaa" stroke="black" cx="167.643" cy="-1084.2" rx="94.0904" ry="48.1667"/>
<text text-anchor="middle" x="167.643" y="-1103" font-family="Times,serif" font-size="14.00">INPUT</text>
<text text-anchor="middle" x="167.643" y="-1088" font-family="Times,serif" font-size="14.00"> (13)</text>
<text text-anchor="start" x="109.143" y="-1073" font-family="Times,serif" font-size="14.00">module = nn.Identity</text>
<text text-anchor="middle" x="167.643" y="-1058" font-family="Times,serif" font-size="14.00">reverseMap = {}</text>
</a>
</g>
</g>
<!-- n13&#45;&gt;n9 -->
<g id="edge15" class="edge"><title>n13&#45;&gt;n9</title>
<path fill="none" stroke="black" d="M154.303,-1036.29C151.816,-1027.55 149.219,-1018.41 146.739,-1009.69"/>
<polygon fill="black" stroke="black" points="150.103,-1008.73 144.002,-1000.07 143.37,-1010.64 150.103,-1008.73"/>
</g>
<!-- n14 -->
<g id="node14" class="node"><title>n14</title>
<g id="a_node14"><a xlink:title="[./RNN.lua]:10_">
<ellipse fill="#aaaaff" stroke="black" cx="388.643" cy="-1084.2" rx="108.789" ry="48.1667"/>
<text text-anchor="middle" x="388.643" y="-1103" font-family="Times,serif" font-size="14.00">HIDDEN STATE[t&#45;1][1]</text>
<text text-anchor="middle" x="388.643" y="-1088" font-family="Times,serif" font-size="14.00"> (14)</text>
<text text-anchor="start" x="319.643" y="-1073" font-family="Times,serif" font-size="14.00">module = nn.Identity</text>
<text text-anchor="middle" x="388.643" y="-1058" font-family="Times,serif" font-size="14.00">reverseMap = {}</text>
</a>
</g>
</g>
<!-- n14&#45;&gt;n10 -->
<g id="edge16" class="edge"><title>n14&#45;&gt;n10</title>
<path fill="none" stroke="black" d="M402.376,-1036.29C404.936,-1027.55 407.609,-1018.41 410.162,-1009.69"/>
<polygon fill="black" stroke="black" points="413.53,-1010.65 412.98,-1000.07 406.812,-1008.68 413.53,-1010.65"/>
</g>
<!-- n15 -->
<g id="node15" class="node"><title>n15</title>
<g id="a_node15"><a xlink:title="[./RNN.lua]:10_">
<ellipse fill="#aaaaff" stroke="black" cx="624.643" cy="-1084.2" rx="108.789" ry="48.1667"/>
<text text-anchor="middle" x="624.643" y="-1103" font-family="Times,serif" font-size="14.00">HIDDEN STATE[t&#45;1][2]</text>
<text text-anchor="middle" x="624.643" y="-1088" font-family="Times,serif" font-size="14.00"> (15)</text>
<text text-anchor="start" x="555.643" y="-1073" font-family="Times,serif" font-size="14.00">module = nn.Identity</text>
<text text-anchor="middle" x="624.643" y="-1058" font-family="Times,serif" font-size="14.00">reverseMap = {}</text>
</a>
</g>
</g>
<!-- n15&#45;&gt;n12 -->
<g id="edge18" class="edge"><title>n15&#45;&gt;n12</title>
<path fill="none" stroke="black" d="M624.643,-1035.85C624.643,-993.28 624.643,-931.107 624.643,-888.747"/>
<polygon fill="black" stroke="black" points="628.143,-888.695 624.643,-878.695 621.143,-888.695 628.143,-888.695"/>
</g>
<!-- n16 -->
<g id="node16" class="node"><title>n16</title>
<g id="a_node16"><a xlink:title="[[C]]:&#45;1_&#45;1">
<ellipse fill="none" stroke="black" cx="190.643" cy="-1216.37" rx="77.5641" ry="48.1667"/>
<text text-anchor="middle" x="190.643" y="-1235.17" font-family="Times,serif" font-size="14.00">Node16</text>
<text text-anchor="start" x="143.643" y="-1220.17" font-family="Times,serif" font-size="14.00">input = {}</text>
<text text-anchor="start" x="143.643" y="-1205.17" font-family="Times,serif" font-size="14.00">selectindex = 1</text>
<text text-anchor="middle" x="190.643" y="-1190.17" font-family="Times,serif" font-size="14.00">reverseMap = {}</text>
</a>
</g>
</g>
<!-- n16&#45;&gt;n13 -->
<g id="edge19" class="edge"><title>n16&#45;&gt;n13</title>
<path fill="none" stroke="black" d="M182.34,-1168.38C180.841,-1159.9 179.265,-1150.97 177.722,-1142.24"/>
<polygon fill="black" stroke="black" points="181.121,-1141.36 175.935,-1132.13 174.228,-1142.58 181.121,-1141.36"/>
</g>
<!-- n17 -->
<g id="node17" class="node"><title>n17</title>
<g id="a_node17"><a xlink:title="[[C]]:&#45;1_&#45;2">
<ellipse fill="none" stroke="black" cx="388.643" cy="-1216.37" rx="77.5641" ry="48.1667"/>
<text text-anchor="middle" x="388.643" y="-1235.17" font-family="Times,serif" font-size="14.00">Node17</text>
<text text-anchor="start" x="341.643" y="-1220.17" font-family="Times,serif" font-size="14.00">input = {}</text>
<text text-anchor="start" x="341.643" y="-1205.17" font-family="Times,serif" font-size="14.00">selectindex = 2</text>
<text text-anchor="middle" x="388.643" y="-1190.17" font-family="Times,serif" font-size="14.00">reverseMap = {}</text>
</a>
</g>
</g>
<!-- n17&#45;&gt;n14 -->
<g id="edge20" class="edge"><title>n17&#45;&gt;n14</title>
<path fill="none" stroke="black" d="M388.643,-1168.01C388.643,-1159.74 388.643,-1151.06 388.643,-1142.55"/>
<polygon fill="black" stroke="black" points="392.143,-1142.31 388.643,-1132.31 385.143,-1142.31 392.143,-1142.31"/>
</g>
<!-- n18 -->
<g id="node18" class="node"><title>n18</title>
<g id="a_node18"><a xlink:title="[[C]]:&#45;1_&#45;3">
<ellipse fill="none" stroke="black" cx="593.643" cy="-1216.37" rx="77.5641" ry="48.1667"/>
<text text-anchor="middle" x="593.643" y="-1235.17" font-family="Times,serif" font-size="14.00">Node18</text>
<text text-anchor="start" x="546.643" y="-1220.17" font-family="Times,serif" font-size="14.00">input = {}</text>
<text text-anchor="start" x="546.643" y="-1205.17" font-family="Times,serif" font-size="14.00">selectindex = 3</text>
<text text-anchor="middle" x="593.643" y="-1190.17" font-family="Times,serif" font-size="14.00">reverseMap = {}</text>
</a>
</g>
</g>
<!-- n18&#45;&gt;n15 -->
<g id="edge21" class="edge"><title>n18&#45;&gt;n15</title>
<path fill="none" stroke="black" d="M604.747,-1168.74C606.792,-1160.16 608.948,-1151.1 611.057,-1142.25"/>
<polygon fill="black" stroke="black" points="614.496,-1142.92 613.408,-1132.38 607.686,-1141.29 614.496,-1142.92"/>
</g>
<!-- n19 -->
<g id="node19" class="node"><title>n19</title>
<g id="a_node19"><a xlink:title="[[C]]:&#45;1_ split at [...e/marcin/torch/install/share/lua/5.3/nngraph/gmodule.lua]:96&#45;mnode">
<ellipse fill="none" stroke="black" cx="388.643" cy="-1337.93" rx="80.7205" ry="37.4533"/>
<text text-anchor="middle" x="388.643" y="-1349.23" font-family="Times,serif" font-size="14.00">Node19</text>
<text text-anchor="start" x="339.643" y="-1334.23" font-family="Times,serif" font-size="14.00">reverseMap = {}</text>
<text text-anchor="middle" x="388.643" y="-1319.23" font-family="Times,serif" font-size="14.00">nSplitOutputs = 3</text>
</a>
</g>
</g>
<!-- n19&#45;&gt;n16 -->
<g id="edge22" class="edge"><title>n19&#45;&gt;n16</title>
<path fill="none" stroke="black" d="M340.46,-1307.83C314.637,-1292.24 282.486,-1272.83 254.596,-1255.99"/>
<polygon fill="black" stroke="black" points="256.073,-1252.79 245.704,-1250.62 252.455,-1258.78 256.073,-1252.79"/>
</g>
<!-- n19&#45;&gt;n17 -->
<g id="edge23" class="edge"><title>n19&#45;&gt;n17</title>
<path fill="none" stroke="black" d="M388.643,-1300.41C388.643,-1292.31 388.643,-1283.54 388.643,-1274.84"/>
<polygon fill="black" stroke="black" points="392.143,-1274.7 388.643,-1264.7 385.143,-1274.7 392.143,-1274.7"/>
</g>
<!-- n19&#45;&gt;n18 -->
<g id="edge24" class="edge"><title>n19&#45;&gt;n18</title>
<path fill="none" stroke="black" d="M438.007,-1308.14C465.278,-1292.23 499.486,-1272.28 528.881,-1255.14"/>
<polygon fill="black" stroke="black" points="530.962,-1257.98 537.837,-1249.92 527.435,-1251.93 530.962,-1257.98"/>
</g>
<!-- n20 -->
<g id="node20" class="node"><title>n20</title>
<g id="a_node20"><a xlink:title="[[C]]:&#45;1_">
<ellipse fill="none" stroke="black" cx="388.643" cy="-1448.88" rx="77.5641" ry="37.4533"/>
<text text-anchor="middle" x="388.643" y="-1460.18" font-family="Times,serif" font-size="14.00">Node20</text>
<text text-anchor="start" x="341.643" y="-1445.18" font-family="Times,serif" font-size="14.00">input = {}</text>
<text text-anchor="middle" x="388.643" y="-1430.18" font-family="Times,serif" font-size="14.00">reverseMap = {}</text>
</a>
</g>
</g>
<!-- n20&#45;&gt;n19 -->
<g id="edge25" class="edge"><title>n20&#45;&gt;n19</title>
<path fill="none" stroke="black" d="M388.643,-1411.3C388.643,-1403.12 388.643,-1394.34 388.643,-1385.82"/>
<polygon fill="black" stroke="black" points="392.143,-1385.6 388.643,-1375.6 385.143,-1385.6 392.143,-1385.6"/>
</g>
</g>
</svg>
