<?xml version="1.0" encoding="UTF-8" standalone="no"?>
<!DOCTYPE svg PUBLIC "-//W3C//DTD SVG 1.1//EN"
 "http://www.w3.org/Graphics/SVG/1.1/DTD/svg11.dtd">
<!-- Generated by graphviz version 2.38.0 (20140413.2041)
 -->
<!-- Title: G Pages: 1 -->
<svg width="3064pt" height="1494pt"
 viewBox="0.00 0.00 3064.29 1494.36" xmlns="http://www.w3.org/2000/svg" xmlns:xlink="http://www.w3.org/1999/xlink">
<g id="graph0" class="graph" transform="scale(1 1) rotate(0) translate(4 1490.36)">
<title>G</title>
<polygon fill="white" stroke="none" points="-4,4 -4,-1490.36 3060.29,-1490.36 3060.29,4 -4,4"/>
<!-- n1 -->
<g id="node1" class="node"><title>n1</title>
<g id="a_node1"><a xlink:title="[/home/marcin/torch/install/share/lua/5.3/nngraph/init.lua]:76_">
<ellipse fill="#aaffaa" stroke="black" cx="318.643" cy="-190.856" rx="133.787" ry="58.8803"/>
<text text-anchor="middle" x="318.643" y="-217.156" font-family="Times,serif" font-size="14.00">OUTPUT</text>
<text text-anchor="middle" x="318.643" y="-202.156" font-family="Times,serif" font-size="14.00">HEAD[1]</text>
<text text-anchor="middle" x="318.643" y="-187.156" font-family="Times,serif" font-size="14.00"> (1)</text>
<text text-anchor="start" x="232.143" y="-172.156" font-family="Times,serif" font-size="14.00">reverseMap = {}</text>
<text text-anchor="middle" x="318.643" y="-157.156" font-family="Times,serif" font-size="14.00">module = nn.Linear(256 &#45;&gt; 40)</text>
</a>
</g>
</g>
<!-- n2 -->
<g id="node2" class="node"><title>n2</title>
<g id="a_node2"><a xlink:title="[[C]]:&#45;1_">
<ellipse fill="none" stroke="black" cx="1354.64" cy="-48.0833" rx="424.028" ry="48.1667"/>
<text text-anchor="middle" x="1354.64" y="-66.8833" font-family="Times,serif" font-size="14.00">Node2</text>
<text text-anchor="start" x="1062.64" y="-51.8833" font-family="Times,serif" font-size="14.00">input = {}</text>
<text text-anchor="start" x="1062.64" y="-36.8833" font-family="Times,serif" font-size="14.00">mapindex = {Node1,Node3,Node4,Node5,Node6,Node7,Node8,Node9,Node10,Node11,Node12,Node13}</text>
<text text-anchor="middle" x="1354.64" y="-21.8833" font-family="Times,serif" font-size="14.00">reverseMap = {}</text>
</a>
</g>
</g>
<!-- n1&#45;&gt;n2 -->
<g id="edge1" class="edge"><title>n1&#45;&gt;n2</title>
<path fill="none" stroke="black" d="M412.137,-148.914C429.957,-142.404 448.663,-136.424 466.643,-132.167 619.272,-96.0291 790.15,-75.4817 940.937,-63.8448"/>
<polygon fill="black" stroke="black" points="941.593,-67.3051 951.298,-63.0567 941.062,-60.3253 941.593,-67.3051"/>
</g>
<!-- n3 -->
<g id="node3" class="node"><title>n3</title>
<g id="a_node3"><a xlink:title="[/home/marcin/torch/install/share/lua/5.3/nngraph/init.lua]:76_">
<ellipse fill="#aaffaa" stroke="black" cx="642.643" cy="-190.856" rx="133.787" ry="58.8803"/>
<text text-anchor="middle" x="642.643" y="-217.156" font-family="Times,serif" font-size="14.00">OUTPUT</text>
<text text-anchor="middle" x="642.643" y="-202.156" font-family="Times,serif" font-size="14.00">HEAD[2]</text>
<text text-anchor="middle" x="642.643" y="-187.156" font-family="Times,serif" font-size="14.00"> (3)</text>
<text text-anchor="start" x="556.143" y="-172.156" font-family="Times,serif" font-size="14.00">reverseMap = {}</text>
<text text-anchor="middle" x="642.643" y="-157.156" font-family="Times,serif" font-size="14.00">module = nn.Linear(256 &#45;&gt; 40)</text>
</a>
</g>
</g>
<!-- n3&#45;&gt;n2 -->
<g id="edge2" class="edge"><title>n3&#45;&gt;n2</title>
<path fill="none" stroke="black" d="M735.492,-148.424C751.651,-142.288 768.466,-136.562 784.643,-132.167 863.932,-110.622 951.037,-94.3485 1032.78,-82.1821"/>
<polygon fill="black" stroke="black" points="1033.33,-85.6379 1042.72,-80.7187 1032.31,-78.7126 1033.33,-85.6379"/>
</g>
<!-- n4 -->
<g id="node4" class="node"><title>n4</title>
<g id="a_node4"><a xlink:title="[/home/marcin/torch/install/share/lua/5.3/nngraph/init.lua]:76_">
<ellipse fill="#aaffaa" stroke="black" cx="927.643" cy="-190.856" rx="133.787" ry="58.8803"/>
<text text-anchor="middle" x="927.643" y="-217.156" font-family="Times,serif" font-size="14.00">OUTPUT</text>
<text text-anchor="middle" x="927.643" y="-202.156" font-family="Times,serif" font-size="14.00">HEAD[3]</text>
<text text-anchor="middle" x="927.643" y="-187.156" font-family="Times,serif" font-size="14.00"> (4)</text>
<text text-anchor="start" x="841.143" y="-172.156" font-family="Times,serif" font-size="14.00">reverseMap = {}</text>
<text text-anchor="middle" x="927.643" y="-157.156" font-family="Times,serif" font-size="14.00">module = nn.Linear(256 &#45;&gt; 40)</text>
</a>
</g>
</g>
<!-- n4&#45;&gt;n2 -->
<g id="edge3" class="edge"><title>n4&#45;&gt;n2</title>
<path fill="none" stroke="black" d="M1023,-149.564C1038.49,-143.467 1054.44,-137.456 1069.64,-132.167 1106.55,-119.327 1146.6,-106.804 1184.69,-95.5376"/>
<polygon fill="black" stroke="black" points="1185.72,-98.882 1194.33,-92.7008 1183.75,-92.1668 1185.72,-98.882"/>
</g>
<!-- n5 -->
<g id="node5" class="node"><title>n5</title>
<g id="a_node5"><a xlink:title="[/home/marcin/torch/install/share/lua/5.3/nngraph/init.lua]:76_">
<ellipse fill="#aaffaa" stroke="black" cx="1212.64" cy="-190.856" rx="133.787" ry="58.8803"/>
<text text-anchor="middle" x="1212.64" y="-217.156" font-family="Times,serif" font-size="14.00">OUTPUT</text>
<text text-anchor="middle" x="1212.64" y="-202.156" font-family="Times,serif" font-size="14.00">HEAD[4]</text>
<text text-anchor="middle" x="1212.64" y="-187.156" font-family="Times,serif" font-size="14.00"> (5)</text>
<text text-anchor="start" x="1126.14" y="-172.156" font-family="Times,serif" font-size="14.00">reverseMap = {}</text>
<text text-anchor="middle" x="1212.64" y="-157.156" font-family="Times,serif" font-size="14.00">module = nn.Linear(256 &#45;&gt; 40)</text>
</a>
</g>
</g>
<!-- n5&#45;&gt;n2 -->
<g id="edge4" class="edge"><title>n5&#45;&gt;n2</title>
<path fill="none" stroke="black" d="M1266.33,-136.636C1277.41,-125.65 1289.09,-114.071 1300.2,-103.059"/>
<polygon fill="black" stroke="black" points="1302.76,-105.442 1307.4,-95.9159 1297.84,-100.471 1302.76,-105.442"/>
</g>
<!-- n6 -->
<g id="node6" class="node"><title>n6</title>
<g id="a_node6"><a xlink:title="[/home/marcin/torch/install/share/lua/5.3/nngraph/init.lua]:76_">
<ellipse fill="#aaffaa" stroke="black" cx="1497.64" cy="-190.856" rx="133.787" ry="58.8803"/>
<text text-anchor="middle" x="1497.64" y="-217.156" font-family="Times,serif" font-size="14.00">OUTPUT</text>
<text text-anchor="middle" x="1497.64" y="-202.156" font-family="Times,serif" font-size="14.00">HEAD[5]</text>
<text text-anchor="middle" x="1497.64" y="-187.156" font-family="Times,serif" font-size="14.00"> (6)</text>
<text text-anchor="start" x="1411.14" y="-172.156" font-family="Times,serif" font-size="14.00">reverseMap = {}</text>
<text text-anchor="middle" x="1497.64" y="-157.156" font-family="Times,serif" font-size="14.00">module = nn.Linear(256 &#45;&gt; 40)</text>
</a>
</g>
</g>
<!-- n6&#45;&gt;n2 -->
<g id="edge5" class="edge"><title>n6&#45;&gt;n2</title>
<path fill="none" stroke="black" d="M1443.99,-137.037C1432.81,-126.029 1421,-114.409 1409.77,-103.35"/>
<polygon fill="black" stroke="black" points="1412.06,-100.697 1402.48,-96.1758 1407.15,-105.685 1412.06,-100.697"/>
</g>
<!-- n7 -->
<g id="node7" class="node"><title>n7</title>
<g id="a_node7"><a xlink:title="[/home/marcin/torch/install/share/lua/5.3/nngraph/init.lua]:76_">
<ellipse fill="#aaffaa" stroke="black" cx="1782.64" cy="-190.856" rx="133.787" ry="58.8803"/>
<text text-anchor="middle" x="1782.64" y="-217.156" font-family="Times,serif" font-size="14.00">OUTPUT</text>
<text text-anchor="middle" x="1782.64" y="-202.156" font-family="Times,serif" font-size="14.00">HEAD[6]</text>
<text text-anchor="middle" x="1782.64" y="-187.156" font-family="Times,serif" font-size="14.00"> (7)</text>
<text text-anchor="start" x="1696.14" y="-172.156" font-family="Times,serif" font-size="14.00">reverseMap = {}</text>
<text text-anchor="middle" x="1782.64" y="-157.156" font-family="Times,serif" font-size="14.00">module = nn.Linear(256 &#45;&gt; 40)</text>
</a>
</g>
</g>
<!-- n7&#45;&gt;n2 -->
<g id="edge6" class="edge"><title>n7&#45;&gt;n2</title>
<path fill="none" stroke="black" d="M1687.29,-149.551C1671.8,-143.456 1655.85,-137.449 1640.64,-132.167 1603.61,-119.303 1563.42,-106.77 1525.2,-95.5017"/>
<polygon fill="black" stroke="black" points="1526.11,-92.1209 1515.53,-92.6646 1524.14,-98.8379 1526.11,-92.1209"/>
</g>
<!-- n8 -->
<g id="node8" class="node"><title>n8</title>
<g id="a_node8"><a xlink:title="[/home/marcin/torch/install/share/lua/5.3/nngraph/init.lua]:76_">
<ellipse fill="#aaffaa" stroke="black" cx="2067.64" cy="-190.856" rx="133.787" ry="58.8803"/>
<text text-anchor="middle" x="2067.64" y="-217.156" font-family="Times,serif" font-size="14.00">OUTPUT</text>
<text text-anchor="middle" x="2067.64" y="-202.156" font-family="Times,serif" font-size="14.00">HEAD[7]</text>
<text text-anchor="middle" x="2067.64" y="-187.156" font-family="Times,serif" font-size="14.00"> (8)</text>
<text text-anchor="start" x="1981.14" y="-172.156" font-family="Times,serif" font-size="14.00">reverseMap = {}</text>
<text text-anchor="middle" x="2067.64" y="-157.156" font-family="Times,serif" font-size="14.00">module = nn.Linear(256 &#45;&gt; 40)</text>
</a>
</g>
</g>
<!-- n8&#45;&gt;n2 -->
<g id="edge7" class="edge"><title>n8&#45;&gt;n2</title>
<path fill="none" stroke="black" d="M1974.8,-148.42C1958.64,-142.285 1941.82,-136.56 1925.64,-132.167 1846.22,-110.595 1758.96,-94.3117 1677.08,-82.1446"/>
<polygon fill="black" stroke="black" points="1677.52,-78.6725 1667.12,-80.6812 1676.5,-85.5981 1677.52,-78.6725"/>
</g>
<!-- n9 -->
<g id="node9" class="node"><title>n9</title>
<g id="a_node9"><a xlink:title="[/home/marcin/torch/install/share/lua/5.3/nngraph/init.lua]:76_">
<ellipse fill="#aaffaa" stroke="black" cx="2352.64" cy="-190.856" rx="133.787" ry="58.8803"/>
<text text-anchor="middle" x="2352.64" y="-217.156" font-family="Times,serif" font-size="14.00">OUTPUT</text>
<text text-anchor="middle" x="2352.64" y="-202.156" font-family="Times,serif" font-size="14.00">HEAD[8]</text>
<text text-anchor="middle" x="2352.64" y="-187.156" font-family="Times,serif" font-size="14.00"> (9)</text>
<text text-anchor="start" x="2266.14" y="-172.156" font-family="Times,serif" font-size="14.00">reverseMap = {}</text>
<text text-anchor="middle" x="2352.64" y="-157.156" font-family="Times,serif" font-size="14.00">module = nn.Linear(256 &#45;&gt; 40)</text>
</a>
</g>
</g>
<!-- n9&#45;&gt;n2 -->
<g id="edge8" class="edge"><title>n9&#45;&gt;n2</title>
<path fill="none" stroke="black" d="M2260.74,-148.049C2244.32,-141.877 2227.18,-136.237 2210.64,-132.167 2067.73,-96.9925 1907.96,-76.5878 1765.51,-64.7935"/>
<polygon fill="black" stroke="black" points="1765.53,-61.284 1755.28,-63.9591 1764.96,-68.2608 1765.53,-61.284"/>
</g>
<!-- n10 -->
<g id="node10" class="node"><title>n10</title>
<g id="a_node10"><a xlink:title="[/home/marcin/torch/install/share/lua/5.3/nngraph/init.lua]:76_">
<ellipse fill="#aaffaa" stroke="black" cx="2637.64" cy="-190.856" rx="133.787" ry="58.8803"/>
<text text-anchor="middle" x="2637.64" y="-217.156" font-family="Times,serif" font-size="14.00">OUTPUT</text>
<text text-anchor="middle" x="2637.64" y="-202.156" font-family="Times,serif" font-size="14.00">HEAD[9]</text>
<text text-anchor="middle" x="2637.64" y="-187.156" font-family="Times,serif" font-size="14.00"> (10)</text>
<text text-anchor="start" x="2551.14" y="-172.156" font-family="Times,serif" font-size="14.00">reverseMap = {}</text>
<text text-anchor="middle" x="2637.64" y="-157.156" font-family="Times,serif" font-size="14.00">module = nn.Linear(256 &#45;&gt; 40)</text>
</a>
</g>
</g>
<!-- n10&#45;&gt;n2 -->
<g id="edge9" class="edge"><title>n10&#45;&gt;n2</title>
<path fill="none" stroke="black" d="M2546.2,-147.856C2529.66,-141.665 2512.36,-136.068 2495.64,-132.167 2360.42,-100.606 2032.51,-78.7352 1762.76,-65.3852"/>
<polygon fill="black" stroke="black" points="1762.54,-61.8704 1752.38,-64.8744 1762.19,-68.8619 1762.54,-61.8704"/>
</g>
<!-- n11 -->
<g id="node11" class="node"><title>n11</title>
<g id="a_node11"><a xlink:title="[/home/marcin/torch/install/share/lua/5.3/nngraph/init.lua]:76_">
<ellipse fill="#aaffaa" stroke="black" cx="2922.64" cy="-190.856" rx="133.787" ry="58.8803"/>
<text text-anchor="middle" x="2922.64" y="-217.156" font-family="Times,serif" font-size="14.00">OUTPUT</text>
<text text-anchor="middle" x="2922.64" y="-202.156" font-family="Times,serif" font-size="14.00">HEAD[10]</text>
<text text-anchor="middle" x="2922.64" y="-187.156" font-family="Times,serif" font-size="14.00"> (11)</text>
<text text-anchor="start" x="2836.14" y="-172.156" font-family="Times,serif" font-size="14.00">reverseMap = {}</text>
<text text-anchor="middle" x="2922.64" y="-157.156" font-family="Times,serif" font-size="14.00">module = nn.Linear(256 &#45;&gt; 40)</text>
</a>
</g>
</g>
<!-- n11&#45;&gt;n2 -->
<g id="edge10" class="edge"><title>n11&#45;&gt;n2</title>
<path fill="none" stroke="black" d="M2831.63,-147.796C2814.97,-141.57 2797.51,-135.976 2780.64,-132.167 2596.98,-90.7001 2129.46,-69.194 1779.46,-58.5585"/>
<polygon fill="black" stroke="black" points="1779.5,-55.0582 1769.39,-58.2548 1779.28,-62.055 1779.5,-55.0582"/>
</g>
<!-- n12 -->
<g id="node12" class="node"><title>n12</title>
<g id="a_node12"><a xlink:title="[/home/marcin/torch/install/share/lua/5.3/nngraph/init.lua]:76_">
<ellipse fill="#ffaaaa" stroke="black" cx="178.643" cy="-708.916" rx="101.233" ry="48.1667"/>
<text text-anchor="middle" x="178.643" y="-727.716" font-family="Times,serif" font-size="14.00">HIDDEN STATE[t][1]</text>
<text text-anchor="middle" x="178.643" y="-712.716" font-family="Times,serif" font-size="14.00"> (12)</text>
<text text-anchor="start" x="115.143" y="-697.716" font-family="Times,serif" font-size="14.00">reverseMap = {}</text>
<text text-anchor="middle" x="178.643" y="-682.716" font-family="Times,serif" font-size="14.00">module = nn.Tanh</text>
</a>
</g>
</g>
<!-- n12&#45;&gt;n2 -->
<g id="edge11" class="edge"><title>n12&#45;&gt;n2</title>
<path fill="none" stroke="black" d="M171.803,-660.905C165.345,-612.393 156.643,-534.472 156.643,-466.796 156.643,-466.796 156.643,-466.796 156.643,-332.63 156.643,-243.136 111.602,-194.68 175.643,-132.167 229.434,-79.6588 607.932,-60.0404 921.79,-52.8633"/>
<polygon fill="black" stroke="black" points="922.072,-56.3579 931.991,-52.6339 921.915,-49.3597 922.072,-56.3579"/>
</g>
<!-- n18 -->
<g id="node18" class="node"><title>n18</title>
<g id="a_node18"><a xlink:title="[/home/marcin/torch/install/share/lua/5.3/nngraph/init.lua]:76_">
<ellipse fill="none" stroke="black" cx="412.643" cy="-587.356" rx="138.686" ry="37.4533"/>
<text text-anchor="middle" x="412.643" y="-598.656" font-family="Times,serif" font-size="14.00">Node18</text>
<text text-anchor="start" x="322.643" y="-583.656" font-family="Times,serif" font-size="14.00">reverseMap = {}</text>
<text text-anchor="middle" x="412.643" y="-568.656" font-family="Times,serif" font-size="14.00">module = nn.Linear(256 &#45;&gt; 256)</text>
</a>
</g>
</g>
<!-- n12&#45;&gt;n18 -->
<g id="edge31" class="edge"><title>n12&#45;&gt;n18</title>
<path fill="none" stroke="black" d="M246.64,-673.174C275.989,-658.178 310.36,-640.616 340.189,-625.375"/>
<polygon fill="black" stroke="black" points="341.978,-628.392 349.29,-620.725 338.793,-622.159 341.978,-628.392"/>
</g>
<!-- n13 -->
<g id="node13" class="node"><title>n13</title>
<g id="a_node13"><a xlink:title="[/home/marcin/torch/install/share/lua/5.3/nngraph/init.lua]:76_">
<ellipse fill="#ffaaaa" stroke="black" cx="1354.64" cy="-333.63" rx="101.233" ry="48.1667"/>
<text text-anchor="middle" x="1354.64" y="-352.43" font-family="Times,serif" font-size="14.00">HIDDEN STATE[t][2]</text>
<text text-anchor="middle" x="1354.64" y="-337.43" font-family="Times,serif" font-size="14.00"> (13)</text>
<text text-anchor="start" x="1291.14" y="-322.43" font-family="Times,serif" font-size="14.00">reverseMap = {}</text>
<text text-anchor="middle" x="1354.64" y="-307.43" font-family="Times,serif" font-size="14.00">module = nn.Tanh</text>
</a>
</g>
</g>
<!-- n13&#45;&gt;n1 -->
<g id="edge13" class="edge"><title>n13&#45;&gt;n1</title>
<path fill="none" stroke="black" d="M1253.29,-332.253C1086.84,-329.619 746.144,-315.723 466.643,-249.546 451.894,-246.054 436.656,-241.402 421.82,-236.25"/>
<polygon fill="black" stroke="black" points="422.731,-232.859 412.137,-232.799 420.381,-239.453 422.731,-232.859"/>
</g>
<!-- n13&#45;&gt;n2 -->
<g id="edge12" class="edge"><title>n13&#45;&gt;n2</title>
<path fill="none" stroke="black" d="M1253.77,-330.278C1038.49,-324.217 549.506,-304.489 499.643,-249.546 464.584,-210.915 464.584,-170.798 499.643,-132.167 531.337,-97.2431 740.451,-76.5475 943.918,-64.5457"/>
<polygon fill="black" stroke="black" points="944.13,-68.0394 953.909,-63.963 943.722,-61.0513 944.13,-68.0394"/>
</g>
<!-- n13&#45;&gt;n3 -->
<g id="edge14" class="edge"><title>n13&#45;&gt;n3</title>
<path fill="none" stroke="black" d="M1254.82,-325.41C1139.85,-315.418 946.047,-293.404 784.643,-249.546 771.625,-246.009 758.195,-241.61 745.025,-236.83"/>
<polygon fill="black" stroke="black" points="746.085,-233.49 735.492,-233.289 743.647,-240.052 746.085,-233.49"/>
</g>
<!-- n13&#45;&gt;n4 -->
<g id="edge15" class="edge"><title>n13&#45;&gt;n4</title>
<path fill="none" stroke="black" d="M1266.91,-309.554C1210.18,-294.018 1134.99,-272.28 1069.64,-249.546 1057.53,-245.331 1044.94,-240.658 1032.48,-235.848"/>
<polygon fill="black" stroke="black" points="1033.58,-232.521 1023,-232.149 1031.04,-239.043 1033.58,-232.521"/>
</g>
<!-- n13&#45;&gt;n5 -->
<g id="edge16" class="edge"><title>n13&#45;&gt;n5</title>
<path fill="none" stroke="black" d="M1311.65,-290.011C1299.53,-277.994 1286.11,-264.69 1273.17,-251.858"/>
<polygon fill="black" stroke="black" points="1275.6,-249.343 1266.04,-244.788 1270.67,-254.314 1275.6,-249.343"/>
</g>
<!-- n13&#45;&gt;n6 -->
<g id="edge17" class="edge"><title>n13&#45;&gt;n6</title>
<path fill="none" stroke="black" d="M1397.94,-290.011C1410.14,-277.994 1423.66,-264.69 1436.69,-251.858"/>
<polygon fill="black" stroke="black" points="1439.2,-254.298 1443.87,-244.788 1434.29,-249.31 1439.2,-254.298"/>
</g>
<!-- n13&#45;&gt;n7 -->
<g id="edge18" class="edge"><title>n13&#45;&gt;n7</title>
<path fill="none" stroke="black" d="M1442.37,-309.669C1499.34,-294.14 1574.95,-272.365 1640.64,-249.546 1652.76,-245.337 1665.35,-240.667 1677.81,-235.859"/>
<polygon fill="black" stroke="black" points="1679.25,-239.054 1687.29,-232.161 1676.71,-232.532 1679.25,-239.054"/>
</g>
<!-- n13&#45;&gt;n8 -->
<g id="edge19" class="edge"><title>n13&#45;&gt;n8</title>
<path fill="none" stroke="black" d="M1454.38,-325.452C1569.53,-315.489 1763.84,-293.492 1925.64,-249.546 1938.66,-246.011 1952.09,-241.613 1965.26,-236.833"/>
<polygon fill="black" stroke="black" points="1966.64,-240.055 1974.8,-233.292 1964.2,-233.493 1966.64,-240.055"/>
</g>
<!-- n13&#45;&gt;n9 -->
<g id="edge20" class="edge"><title>n13&#45;&gt;n9</title>
<path fill="none" stroke="black" d="M1455.72,-332.202C1617.49,-329.438 1943.51,-315.293 2210.64,-249.546 2223.95,-246.271 2237.65,-241.979 2251.05,-237.212"/>
<polygon fill="black" stroke="black" points="2252.55,-240.388 2260.74,-233.664 2250.14,-233.815 2252.55,-240.388"/>
</g>
<!-- n13&#45;&gt;n10 -->
<g id="edge21" class="edge"><title>n13&#45;&gt;n10</title>
<path fill="none" stroke="black" d="M1455.42,-329.328C1696.15,-320.793 2299.2,-295.394 2495.64,-249.546 2509.09,-246.407 2522.93,-242.17 2536.43,-237.408"/>
<polygon fill="black" stroke="black" points="2538,-240.563 2546.2,-233.856 2535.61,-233.984 2538,-240.563"/>
</g>
<!-- n13&#45;&gt;n11 -->
<g id="edge22" class="edge"><title>n13&#45;&gt;n11</title>
<path fill="none" stroke="black" d="M1455.63,-331.027C1737.37,-325.879 2527.86,-306.618 2780.64,-249.546 2794.35,-246.451 2808.45,-242.178 2822.19,-237.345"/>
<polygon fill="black" stroke="black" points="2823.43,-240.618 2831.63,-233.916 2821.04,-234.038 2823.43,-240.618"/>
</g>
<!-- n14 -->
<g id="node14" class="node"><title>n14</title>
<g id="a_node14"><a xlink:title="[/home/marcin/torch/install/share/lua/5.3/nngraph/init.lua]:69_">
<ellipse fill="none" stroke="black" cx="178.643" cy="-841.082" rx="133.787" ry="48.1667"/>
<text text-anchor="middle" x="178.643" y="-859.882" font-family="Times,serif" font-size="14.00">Node14</text>
<text text-anchor="start" x="92.1432" y="-844.882" font-family="Times,serif" font-size="14.00">reverseMap = {}</text>
<text text-anchor="start" x="92.1432" y="-829.882" font-family="Times,serif" font-size="14.00">mapindex = {Node16,Node17}</text>
<text text-anchor="middle" x="178.643" y="-814.882" font-family="Times,serif" font-size="14.00">module = nn.CAddTable</text>
</a>
</g>
</g>
<!-- n14&#45;&gt;n12 -->
<g id="edge23" class="edge"><title>n14&#45;&gt;n12</title>
<path fill="none" stroke="black" d="M178.643,-792.721C178.643,-784.452 178.643,-775.771 178.643,-767.268"/>
<polygon fill="black" stroke="black" points="182.143,-767.024 178.643,-757.024 175.143,-767.024 182.143,-767.024"/>
</g>
<!-- n15 -->
<g id="node15" class="node"><title>n15</title>
<g id="a_node15"><a xlink:title="[/home/marcin/torch/install/share/lua/5.3/nngraph/init.lua]:69_">
<ellipse fill="none" stroke="black" cx="624.643" cy="-465.796" rx="133.787" ry="48.1667"/>
<text text-anchor="middle" x="624.643" y="-484.596" font-family="Times,serif" font-size="14.00">Node15</text>
<text text-anchor="start" x="538.143" y="-469.596" font-family="Times,serif" font-size="14.00">reverseMap = {}</text>
<text text-anchor="start" x="538.143" y="-454.596" font-family="Times,serif" font-size="14.00">mapindex = {Node18,Node19}</text>
<text text-anchor="middle" x="624.643" y="-439.596" font-family="Times,serif" font-size="14.00">module = nn.CAddTable</text>
</a>
</g>
</g>
<!-- n15&#45;&gt;n13 -->
<g id="edge24" class="edge"><title>n15&#45;&gt;n13</title>
<path fill="none" stroke="black" d="M743.555,-443.593C884.365,-418.485 1116.64,-377.069 1250.6,-353.181"/>
<polygon fill="black" stroke="black" points="1251.24,-356.623 1260.47,-351.421 1250.01,-349.731 1251.24,-356.623"/>
</g>
<!-- n16 -->
<g id="node16" class="node"><title>n16</title>
<g id="a_node16"><a xlink:title="[/home/marcin/torch/install/share/lua/5.3/nngraph/init.lua]:76_">
<ellipse fill="none" stroke="black" cx="133.643" cy="-962.642" rx="133.787" ry="37.4533"/>
<text text-anchor="middle" x="133.643" y="-973.942" font-family="Times,serif" font-size="14.00">Node16</text>
<text text-anchor="start" x="47.1432" y="-958.942" font-family="Times,serif" font-size="14.00">reverseMap = {}</text>
<text text-anchor="middle" x="133.643" y="-943.942" font-family="Times,serif" font-size="14.00">module = nn.Linear(40 &#45;&gt; 256)</text>
</a>
</g>
</g>
<!-- n16&#45;&gt;n14 -->
<g id="edge25" class="edge"><title>n16&#45;&gt;n14</title>
<path fill="none" stroke="black" d="M147.389,-925.121C150.574,-916.66 154.035,-907.463 157.456,-898.374"/>
<polygon fill="black" stroke="black" points="160.746,-899.568 160.993,-888.976 154.195,-897.103 160.746,-899.568"/>
</g>
<!-- n17 -->
<g id="node17" class="node"><title>n17</title>
<g id="a_node17"><a xlink:title="[/home/marcin/torch/install/share/lua/5.3/nngraph/init.lua]:76_">
<ellipse fill="none" stroke="black" cx="423.643" cy="-962.642" rx="138.686" ry="37.4533"/>
<text text-anchor="middle" x="423.643" y="-973.942" font-family="Times,serif" font-size="14.00">Node17</text>
<text text-anchor="start" x="333.643" y="-958.942" font-family="Times,serif" font-size="14.00">reverseMap = {}</text>
<text text-anchor="middle" x="423.643" y="-943.942" font-family="Times,serif" font-size="14.00">module = nn.Linear(256 &#45;&gt; 256)</text>
</a>
</g>
</g>
<!-- n17&#45;&gt;n14 -->
<g id="edge26" class="edge"><title>n17&#45;&gt;n14</title>
<path fill="none" stroke="black" d="M357.988,-929.602C329.728,-915.812 296.282,-899.49 265.974,-884.7"/>
<polygon fill="black" stroke="black" points="267.2,-881.404 256.678,-880.164 264.13,-887.695 267.2,-881.404"/>
</g>
<!-- n18&#45;&gt;n15 -->
<g id="edge27" class="edge"><title>n18&#45;&gt;n15</title>
<path fill="none" stroke="black" d="M471.134,-553.369C493.948,-540.503 520.463,-525.55 544.973,-511.727"/>
<polygon fill="black" stroke="black" points="546.911,-514.652 553.902,-506.691 543.472,-508.555 546.911,-514.652"/>
</g>
<!-- n19 -->
<g id="node19" class="node"><title>n19</title>
<g id="a_node19"><a xlink:title="[/home/marcin/torch/install/share/lua/5.3/nngraph/init.lua]:76_">
<ellipse fill="none" stroke="black" cx="624.643" cy="-841.082" rx="138.686" ry="37.4533"/>
<text text-anchor="middle" x="624.643" y="-852.382" font-family="Times,serif" font-size="14.00">Node19</text>
<text text-anchor="start" x="534.643" y="-837.382" font-family="Times,serif" font-size="14.00">reverseMap = {}</text>
<text text-anchor="middle" x="624.643" y="-822.382" font-family="Times,serif" font-size="14.00">module = nn.Linear(256 &#45;&gt; 256)</text>
</a>
</g>
</g>
<!-- n19&#45;&gt;n15 -->
<g id="edge28" class="edge"><title>n19&#45;&gt;n15</title>
<path fill="none" stroke="black" d="M624.643,-803.269C624.643,-738.049 624.643,-601.788 624.643,-524.163"/>
<polygon fill="black" stroke="black" points="628.143,-524.074 624.643,-514.074 621.143,-524.074 628.143,-524.074"/>
</g>
<!-- n20 -->
<g id="node20" class="node"><title>n20</title>
<g id="a_node20"><a xlink:title="[./RNN.lua]:8_">
<ellipse fill="#ffffaa" stroke="black" cx="167.643" cy="-1084.2" rx="94.0904" ry="48.1667"/>
<text text-anchor="middle" x="167.643" y="-1103" font-family="Times,serif" font-size="14.00">INPUT</text>
<text text-anchor="middle" x="167.643" y="-1088" font-family="Times,serif" font-size="14.00"> (20)</text>
<text text-anchor="start" x="109.143" y="-1073" font-family="Times,serif" font-size="14.00">reverseMap = {}</text>
<text text-anchor="middle" x="167.643" y="-1058" font-family="Times,serif" font-size="14.00">module = nn.Identity</text>
</a>
</g>
</g>
<!-- n20&#45;&gt;n16 -->
<g id="edge29" class="edge"><title>n20&#45;&gt;n16</title>
<path fill="none" stroke="black" d="M154.303,-1036.29C151.816,-1027.55 149.219,-1018.41 146.739,-1009.69"/>
<polygon fill="black" stroke="black" points="150.103,-1008.73 144.002,-1000.07 143.37,-1010.64 150.103,-1008.73"/>
</g>
<!-- n21 -->
<g id="node21" class="node"><title>n21</title>
<g id="a_node21"><a xlink:title="[./RNN.lua]:10_">
<ellipse fill="#aaaaff" stroke="black" cx="388.643" cy="-1084.2" rx="108.789" ry="48.1667"/>
<text text-anchor="middle" x="388.643" y="-1103" font-family="Times,serif" font-size="14.00">HIDDEN STATE[t&#45;1][1]</text>
<text text-anchor="middle" x="388.643" y="-1088" font-family="Times,serif" font-size="14.00"> (21)</text>
<text text-anchor="start" x="319.643" y="-1073" font-family="Times,serif" font-size="14.00">reverseMap = {}</text>
<text text-anchor="middle" x="388.643" y="-1058" font-family="Times,serif" font-size="14.00">module = nn.Identity</text>
</a>
</g>
</g>
<!-- n21&#45;&gt;n17 -->
<g id="edge30" class="edge"><title>n21&#45;&gt;n17</title>
<path fill="none" stroke="black" d="M402.376,-1036.29C404.936,-1027.55 407.609,-1018.41 410.162,-1009.69"/>
<polygon fill="black" stroke="black" points="413.53,-1010.65 412.98,-1000.07 406.812,-1008.68 413.53,-1010.65"/>
</g>
<!-- n22 -->
<g id="node22" class="node"><title>n22</title>
<g id="a_node22"><a xlink:title="[./RNN.lua]:10_">
<ellipse fill="#aaaaff" stroke="black" cx="624.643" cy="-1084.2" rx="108.789" ry="48.1667"/>
<text text-anchor="middle" x="624.643" y="-1103" font-family="Times,serif" font-size="14.00">HIDDEN STATE[t&#45;1][2]</text>
<text text-anchor="middle" x="624.643" y="-1088" font-family="Times,serif" font-size="14.00"> (22)</text>
<text text-anchor="start" x="555.643" y="-1073" font-family="Times,serif" font-size="14.00">reverseMap = {}</text>
<text text-anchor="middle" x="624.643" y="-1058" font-family="Times,serif" font-size="14.00">module = nn.Identity</text>
</a>
</g>
</g>
<!-- n22&#45;&gt;n19 -->
<g id="edge32" class="edge"><title>n22&#45;&gt;n19</title>
<path fill="none" stroke="black" d="M624.643,-1035.85C624.643,-993.28 624.643,-931.107 624.643,-888.747"/>
<polygon fill="black" stroke="black" points="628.143,-888.695 624.643,-878.695 621.143,-888.695 628.143,-888.695"/>
</g>
<!-- n23 -->
<g id="node23" class="node"><title>n23</title>
<g id="a_node23"><a xlink:title="[[C]]:&#45;1_&#45;1">
<ellipse fill="none" stroke="black" cx="190.643" cy="-1216.37" rx="77.5641" ry="48.1667"/>
<text text-anchor="middle" x="190.643" y="-1235.17" font-family="Times,serif" font-size="14.00">Node23</text>
<text text-anchor="start" x="143.643" y="-1220.17" font-family="Times,serif" font-size="14.00">selectindex = 1</text>
<text text-anchor="start" x="143.643" y="-1205.17" font-family="Times,serif" font-size="14.00">input = {}</text>
<text text-anchor="middle" x="190.643" y="-1190.17" font-family="Times,serif" font-size="14.00">reverseMap = {}</text>
</a>
</g>
</g>
<!-- n23&#45;&gt;n20 -->
<g id="edge33" class="edge"><title>n23&#45;&gt;n20</title>
<path fill="none" stroke="black" d="M182.34,-1168.38C180.841,-1159.9 179.265,-1150.97 177.722,-1142.24"/>
<polygon fill="black" stroke="black" points="181.121,-1141.36 175.935,-1132.13 174.228,-1142.58 181.121,-1141.36"/>
</g>
<!-- n24 -->
<g id="node24" class="node"><title>n24</title>
<g id="a_node24"><a xlink:title="[[C]]:&#45;1_&#45;2">
<ellipse fill="none" stroke="black" cx="388.643" cy="-1216.37" rx="77.5641" ry="48.1667"/>
<text text-anchor="middle" x="388.643" y="-1235.17" font-family="Times,serif" font-size="14.00">Node24</text>
<text text-anchor="start" x="341.643" y="-1220.17" font-family="Times,serif" font-size="14.00">selectindex = 2</text>
<text text-anchor="start" x="341.643" y="-1205.17" font-family="Times,serif" font-size="14.00">input = {}</text>
<text text-anchor="middle" x="388.643" y="-1190.17" font-family="Times,serif" font-size="14.00">reverseMap = {}</text>
</a>
</g>
</g>
<!-- n24&#45;&gt;n21 -->
<g id="edge34" class="edge"><title>n24&#45;&gt;n21</title>
<path fill="none" stroke="black" d="M388.643,-1168.01C388.643,-1159.74 388.643,-1151.06 388.643,-1142.55"/>
<polygon fill="black" stroke="black" points="392.143,-1142.31 388.643,-1132.31 385.143,-1142.31 392.143,-1142.31"/>
</g>
<!-- n25 -->
<g id="node25" class="node"><title>n25</title>
<g id="a_node25"><a xlink:title="[[C]]:&#45;1_&#45;3">
<ellipse fill="none" stroke="black" cx="593.643" cy="-1216.37" rx="77.5641" ry="48.1667"/>
<text text-anchor="middle" x="593.643" y="-1235.17" font-family="Times,serif" font-size="14.00">Node25</text>
<text text-anchor="start" x="546.643" y="-1220.17" font-family="Times,serif" font-size="14.00">selectindex = 3</text>
<text text-anchor="start" x="546.643" y="-1205.17" font-family="Times,serif" font-size="14.00">input = {}</text>
<text text-anchor="middle" x="593.643" y="-1190.17" font-family="Times,serif" font-size="14.00">reverseMap = {}</text>
</a>
</g>
</g>
<!-- n25&#45;&gt;n22 -->
<g id="edge35" class="edge"><title>n25&#45;&gt;n22</title>
<path fill="none" stroke="black" d="M604.747,-1168.74C606.792,-1160.16 608.948,-1151.1 611.057,-1142.25"/>
<polygon fill="black" stroke="black" points="614.496,-1142.92 613.408,-1132.38 607.686,-1141.29 614.496,-1142.92"/>
</g>
<!-- n26 -->
<g id="node26" class="node"><title>n26</title>
<g id="a_node26"><a xlink:title="[[C]]:&#45;1_ split at [...e/marcin/torch/install/share/lua/5.3/nngraph/gmodule.lua]:96&#45;mnode">
<ellipse fill="none" stroke="black" cx="388.643" cy="-1337.93" rx="80.7205" ry="37.4533"/>
<text text-anchor="middle" x="388.643" y="-1349.23" font-family="Times,serif" font-size="14.00">Node26</text>
<text text-anchor="start" x="339.643" y="-1334.23" font-family="Times,serif" font-size="14.00">reverseMap = {}</text>
<text text-anchor="middle" x="388.643" y="-1319.23" font-family="Times,serif" font-size="14.00">nSplitOutputs = 3</text>
</a>
</g>
</g>
<!-- n26&#45;&gt;n23 -->
<g id="edge36" class="edge"><title>n26&#45;&gt;n23</title>
<path fill="none" stroke="black" d="M340.46,-1307.83C314.637,-1292.24 282.486,-1272.83 254.596,-1255.99"/>
<polygon fill="black" stroke="black" points="256.073,-1252.79 245.704,-1250.62 252.455,-1258.78 256.073,-1252.79"/>
</g>
<!-- n26&#45;&gt;n24 -->
<g id="edge37" class="edge"><title>n26&#45;&gt;n24</title>
<path fill="none" stroke="black" d="M388.643,-1300.41C388.643,-1292.31 388.643,-1283.54 388.643,-1274.84"/>
<polygon fill="black" stroke="black" points="392.143,-1274.7 388.643,-1264.7 385.143,-1274.7 392.143,-1274.7"/>
</g>
<!-- n26&#45;&gt;n25 -->
<g id="edge38" class="edge"><title>n26&#45;&gt;n25</title>
<path fill="none" stroke="black" d="M438.007,-1308.14C465.278,-1292.23 499.486,-1272.28 528.881,-1255.14"/>
<polygon fill="black" stroke="black" points="530.962,-1257.98 537.837,-1249.92 527.435,-1251.93 530.962,-1257.98"/>
</g>
<!-- n27 -->
<g id="node27" class="node"><title>n27</title>
<g id="a_node27"><a xlink:title="[[C]]:&#45;1_">
<ellipse fill="none" stroke="black" cx="388.643" cy="-1448.88" rx="77.5641" ry="37.4533"/>
<text text-anchor="middle" x="388.643" y="-1460.18" font-family="Times,serif" font-size="14.00">Node27</text>
<text text-anchor="start" x="341.643" y="-1445.18" font-family="Times,serif" font-size="14.00">input = {}</text>
<text text-anchor="middle" x="388.643" y="-1430.18" font-family="Times,serif" font-size="14.00">reverseMap = {}</text>
</a>
</g>
</g>
<!-- n27&#45;&gt;n26 -->
<g id="edge39" class="edge"><title>n27&#45;&gt;n26</title>
<path fill="none" stroke="black" d="M388.643,-1411.3C388.643,-1403.12 388.643,-1394.34 388.643,-1385.82"/>
<polygon fill="black" stroke="black" points="392.143,-1385.6 388.643,-1375.6 385.143,-1385.6 392.143,-1385.6"/>
</g>
</g>
</svg>
