<?xml version="1.0" encoding="UTF-8" standalone="no"?>
<!DOCTYPE svg PUBLIC "-//W3C//DTD SVG 1.1//EN"
 "http://www.w3.org/Graphics/SVG/1.1/DTD/svg11.dtd">
<!-- Generated by graphviz version 2.38.0 (20140413.2041)
 -->
<!-- Title: G Pages: 1 -->
<svg width="1202pt" height="1605pt"
 viewBox="0.00 0.00 1202.29 1605.31" xmlns="http://www.w3.org/2000/svg" xmlns:xlink="http://www.w3.org/1999/xlink">
<g id="graph0" class="graph" transform="scale(1 1) rotate(0) translate(4 1601.31)">
<title>G</title>
<polygon fill="white" stroke="none" points="-4,4 -4,-1601.31 1198.29,-1601.31 1198.29,4 -4,4"/>
<!-- n1 -->
<g id="node1" class="node"><title>n1</title>
<g id="a_node1"><a xlink:title="[/home/marcin/torch/install/share/lua/5.2/nngraph/init.lua]:76_">
<ellipse fill="yellow" stroke="black" cx="490.643" cy="-190.856" rx="113.689" ry="58.8803"/>
<text text-anchor="middle" x="490.643" y="-217.156" font-family="Times,serif" font-size="14.00">OUTPUT[t]</text>
<text text-anchor="middle" x="490.643" y="-202.156" font-family="Times,serif" font-size="14.00">AUTHOR[1]</text>
<text text-anchor="middle" x="490.643" y="-187.156" font-family="Times,serif" font-size="14.00"> (1)</text>
<text text-anchor="start" x="418.143" y="-172.156" font-family="Times,serif" font-size="14.00">module = nn.LogSoftMax</text>
<text text-anchor="middle" x="490.643" y="-157.156" font-family="Times,serif" font-size="14.00">reverseMap = {}</text>
</a>
</g>
</g>
<!-- n2 -->
<g id="node2" class="node"><title>n2</title>
<g id="a_node2"><a xlink:title="[[C]]:&#45;1_">
<ellipse fill="none" stroke="black" cx="490.643" cy="-48.0833" rx="208.693" ry="48.1667"/>
<text text-anchor="middle" x="490.643" y="-66.8833" font-family="Times,serif" font-size="14.00">Node2</text>
<text text-anchor="start" x="351.143" y="-51.8833" font-family="Times,serif" font-size="14.00">input = {}</text>
<text text-anchor="start" x="351.143" y="-36.8833" font-family="Times,serif" font-size="14.00">mapindex = {Node1,Node3,Node4,Node5,Node6}</text>
<text text-anchor="middle" x="490.643" y="-21.8833" font-family="Times,serif" font-size="14.00">reverseMap = {}</text>
</a>
</g>
</g>
<!-- n1&#45;&gt;n2 -->
<g id="edge1" class="edge"><title>n1&#45;&gt;n2</title>
<path fill="none" stroke="black" d="M490.643,-131.786C490.643,-123.386 490.643,-114.745 490.643,-106.361"/>
<polygon fill="black" stroke="black" points="494.143,-106.295 490.643,-96.2952 487.143,-106.295 494.143,-106.295"/>
</g>
<!-- n3 -->
<g id="node3" class="node"><title>n3</title>
<g id="a_node3"><a xlink:title="[/home/marcin/torch/install/share/lua/5.2/nngraph/init.lua]:76_">
<ellipse fill="yellow" stroke="black" cx="755.643" cy="-190.856" rx="113.689" ry="58.8803"/>
<text text-anchor="middle" x="755.643" y="-217.156" font-family="Times,serif" font-size="14.00">OUTPUT[t]</text>
<text text-anchor="middle" x="755.643" y="-202.156" font-family="Times,serif" font-size="14.00">AUTHOR[2]</text>
<text text-anchor="middle" x="755.643" y="-187.156" font-family="Times,serif" font-size="14.00"> (3)</text>
<text text-anchor="start" x="683.143" y="-172.156" font-family="Times,serif" font-size="14.00">module = nn.LogSoftMax</text>
<text text-anchor="middle" x="755.643" y="-157.156" font-family="Times,serif" font-size="14.00">reverseMap = {}</text>
</a>
</g>
</g>
<!-- n3&#45;&gt;n2 -->
<g id="edge2" class="edge"><title>n3&#45;&gt;n2</title>
<path fill="none" stroke="black" d="M677.21,-148.191C647.067,-132.178 612.417,-113.772 581.224,-97.2013"/>
<polygon fill="black" stroke="black" points="582.568,-93.9523 572.095,-92.3519 579.284,-100.134 582.568,-93.9523"/>
</g>
<!-- n4 -->
<g id="node4" class="node"><title>n4</title>
<g id="a_node4"><a xlink:title="[/home/marcin/torch/install/share/lua/5.2/nngraph/init.lua]:76_">
<ellipse fill="yellow" stroke="black" cx="1030.64" cy="-190.856" rx="113.689" ry="58.8803"/>
<text text-anchor="middle" x="1030.64" y="-217.156" font-family="Times,serif" font-size="14.00">OUTPUT[t]</text>
<text text-anchor="middle" x="1030.64" y="-202.156" font-family="Times,serif" font-size="14.00">AUTHOR[3]</text>
<text text-anchor="middle" x="1030.64" y="-187.156" font-family="Times,serif" font-size="14.00"> (4)</text>
<text text-anchor="start" x="958.143" y="-172.156" font-family="Times,serif" font-size="14.00">module = nn.LogSoftMax</text>
<text text-anchor="middle" x="1030.64" y="-157.156" font-family="Times,serif" font-size="14.00">reverseMap = {}</text>
</a>
</g>
</g>
<!-- n4&#45;&gt;n2 -->
<g id="edge3" class="edge"><title>n4&#45;&gt;n2</title>
<path fill="none" stroke="black" d="M942.2,-153.703C921.546,-145.985 899.489,-138.316 878.643,-132.167 809.054,-111.639 731.053,-93.9397 663.339,-80.2157"/>
<polygon fill="black" stroke="black" points="663.92,-76.7624 653.426,-78.2198 662.538,-83.6247 663.92,-76.7624"/>
</g>
<!-- n5 -->
<g id="node5" class="node"><title>n5</title>
<g id="a_node5"><a xlink:title="[/home/marcin/torch/install/share/lua/5.2/nngraph/init.lua]:76_">
<ellipse fill="red" stroke="black" cx="312.643" cy="-819.869" rx="101.233" ry="48.1667"/>
<text text-anchor="middle" x="312.643" y="-838.669" font-family="Times,serif" font-size="14.00">HIDDEN STATE[t][1]</text>
<text text-anchor="middle" x="312.643" y="-823.669" font-family="Times,serif" font-size="14.00"> (5)</text>
<text text-anchor="start" x="249.143" y="-808.669" font-family="Times,serif" font-size="14.00">module = nn.Tanh</text>
<text text-anchor="middle" x="312.643" y="-793.669" font-family="Times,serif" font-size="14.00">reverseMap = {}</text>
</a>
</g>
</g>
<!-- n5&#45;&gt;n2 -->
<g id="edge4" class="edge"><title>n5&#45;&gt;n2</title>
<path fill="none" stroke="black" d="M305.803,-771.858C299.345,-723.346 290.643,-645.426 290.643,-577.749 290.643,-577.749 290.643,-577.749 290.643,-322.023 290.643,-235.201 283.626,-200.921 336.643,-132.167 347.756,-117.755 362.101,-105.538 377.557,-95.279"/>
<polygon fill="black" stroke="black" points="379.667,-98.0854 386.244,-89.7792 375.923,-92.171 379.667,-98.0854"/>
</g>
<!-- n14 -->
<g id="node14" class="node"><title>n14</title>
<g id="a_node14"><a xlink:title="[/home/marcin/torch/install/share/lua/5.2/nngraph/init.lua]:76_">
<ellipse fill="none" stroke="black" cx="457.643" cy="-698.309" rx="138.686" ry="37.4533"/>
<text text-anchor="middle" x="457.643" y="-709.609" font-family="Times,serif" font-size="14.00">Node14</text>
<text text-anchor="start" x="367.643" y="-694.609" font-family="Times,serif" font-size="14.00">module = nn.Linear(256 &#45;&gt; 256)</text>
<text text-anchor="middle" x="457.643" y="-679.609" font-family="Times,serif" font-size="14.00">reverseMap = {}</text>
</a>
</g>
</g>
<!-- n5&#45;&gt;n14 -->
<g id="edge20" class="edge"><title>n5&#45;&gt;n14</title>
<path fill="none" stroke="black" d="M362.544,-777.723C377.059,-765.755 392.917,-752.679 407.451,-740.696"/>
<polygon fill="black" stroke="black" points="409.882,-743.227 415.371,-734.165 405.429,-737.826 409.882,-743.227"/>
</g>
<!-- n6 -->
<g id="node6" class="node"><title>n6</title>
<g id="a_node6"><a xlink:title="[/home/marcin/torch/install/share/lua/5.2/nngraph/init.lua]:76_">
<ellipse fill="red" stroke="black" cx="557.643" cy="-444.583" rx="101.233" ry="48.1667"/>
<text text-anchor="middle" x="557.643" y="-463.383" font-family="Times,serif" font-size="14.00">HIDDEN STATE[t][2]</text>
<text text-anchor="middle" x="557.643" y="-448.383" font-family="Times,serif" font-size="14.00"> (6)</text>
<text text-anchor="start" x="494.143" y="-433.383" font-family="Times,serif" font-size="14.00">module = nn.Tanh</text>
<text text-anchor="middle" x="557.643" y="-418.383" font-family="Times,serif" font-size="14.00">reverseMap = {}</text>
</a>
</g>
</g>
<!-- n6&#45;&gt;n2 -->
<g id="edge5" class="edge"><title>n6&#45;&gt;n2</title>
<path fill="none" stroke="black" d="M461.134,-430.037C418.923,-418.787 373.267,-398.194 347.643,-360.5 322.442,-323.427 346.61,-166.228 367.643,-132.167 375.529,-119.396 386.193,-108.137 397.963,-98.3607"/>
<polygon fill="black" stroke="black" points="400.154,-101.09 405.839,-92.1499 395.82,-95.5936 400.154,-101.09"/>
</g>
<!-- n7 -->
<g id="node7" class="node"><title>n7</title>
<g id="a_node7"><a xlink:title="[/home/marcin/torch/install/share/lua/5.2/nngraph/init.lua]:76_">
<ellipse fill="none" stroke="black" cx="490.643" cy="-323.023" rx="133.787" ry="37.4533"/>
<text text-anchor="middle" x="490.643" y="-334.323" font-family="Times,serif" font-size="14.00">Node7</text>
<text text-anchor="start" x="404.143" y="-319.323" font-family="Times,serif" font-size="14.00">module = nn.Linear(256 &#45;&gt; 50)</text>
<text text-anchor="middle" x="490.643" y="-304.323" font-family="Times,serif" font-size="14.00">reverseMap = {}</text>
</a>
</g>
</g>
<!-- n6&#45;&gt;n7 -->
<g id="edge11" class="edge"><title>n6&#45;&gt;n7</title>
<path fill="none" stroke="black" d="M532.122,-398.041C526.798,-388.54 521.187,-378.528 515.873,-369.045"/>
<polygon fill="black" stroke="black" points="518.83,-367.162 510.888,-360.15 512.724,-370.584 518.83,-367.162"/>
</g>
<!-- n8 -->
<g id="node8" class="node"><title>n8</title>
<g id="a_node8"><a xlink:title="[/home/marcin/torch/install/share/lua/5.2/nngraph/init.lua]:76_">
<ellipse fill="none" stroke="black" cx="775.643" cy="-323.023" rx="133.787" ry="37.4533"/>
<text text-anchor="middle" x="775.643" y="-334.323" font-family="Times,serif" font-size="14.00">Node8</text>
<text text-anchor="start" x="689.143" y="-319.323" font-family="Times,serif" font-size="14.00">module = nn.Linear(256 &#45;&gt; 50)</text>
<text text-anchor="middle" x="775.643" y="-304.323" font-family="Times,serif" font-size="14.00">reverseMap = {}</text>
</a>
</g>
</g>
<!-- n6&#45;&gt;n8 -->
<g id="edge12" class="edge"><title>n6&#45;&gt;n8</title>
<path fill="none" stroke="black" d="M623.05,-407.711C649.643,-393.127 680.379,-376.269 707.267,-361.523"/>
<polygon fill="black" stroke="black" points="709.142,-364.487 716.227,-356.609 705.776,-358.349 709.142,-364.487"/>
</g>
<!-- n9 -->
<g id="node9" class="node"><title>n9</title>
<g id="a_node9"><a xlink:title="[/home/marcin/torch/install/share/lua/5.2/nngraph/init.lua]:76_">
<ellipse fill="none" stroke="black" cx="1060.64" cy="-323.023" rx="133.787" ry="37.4533"/>
<text text-anchor="middle" x="1060.64" y="-334.323" font-family="Times,serif" font-size="14.00">Node9</text>
<text text-anchor="start" x="974.143" y="-319.323" font-family="Times,serif" font-size="14.00">module = nn.Linear(256 &#45;&gt; 50)</text>
<text text-anchor="middle" x="1060.64" y="-304.323" font-family="Times,serif" font-size="14.00">reverseMap = {}</text>
</a>
</g>
</g>
<!-- n6&#45;&gt;n9 -->
<g id="edge13" class="edge"><title>n6&#45;&gt;n9</title>
<path fill="none" stroke="black" d="M648.665,-423.302C721.75,-406.857 826.944,-382.826 918.643,-360.5 930.352,-357.649 942.586,-354.605 954.751,-351.537"/>
<polygon fill="black" stroke="black" points="955.646,-354.921 964.482,-349.074 953.929,-348.135 955.646,-354.921"/>
</g>
<!-- n7&#45;&gt;n1 -->
<g id="edge6" class="edge"><title>n7&#45;&gt;n1</title>
<path fill="none" stroke="black" d="M490.643,-285.418C490.643,-277.332 490.643,-268.516 490.643,-259.632"/>
<polygon fill="black" stroke="black" points="494.143,-259.61 490.643,-249.61 487.143,-259.61 494.143,-259.61"/>
</g>
<!-- n8&#45;&gt;n3 -->
<g id="edge7" class="edge"><title>n8&#45;&gt;n3</title>
<path fill="none" stroke="black" d="M770.019,-285.418C768.776,-277.332 767.422,-268.516 766.057,-259.632"/>
<polygon fill="black" stroke="black" points="769.495,-258.962 764.517,-249.61 762.576,-260.025 769.495,-258.962"/>
</g>
<!-- n9&#45;&gt;n4 -->
<g id="edge8" class="edge"><title>n9&#45;&gt;n4</title>
<path fill="none" stroke="black" d="M1052.21,-285.418C1050.34,-277.332 1048.31,-268.516 1046.26,-259.632"/>
<polygon fill="black" stroke="black" points="1049.61,-258.568 1043.95,-249.61 1042.79,-260.14 1049.61,-258.568"/>
</g>
<!-- n10 -->
<g id="node10" class="node"><title>n10</title>
<g id="a_node10"><a xlink:title="[/home/marcin/torch/install/share/lua/5.2/nngraph/init.lua]:69_">
<ellipse fill="none" stroke="black" cx="312.643" cy="-952.036" rx="133.787" ry="48.1667"/>
<text text-anchor="middle" x="312.643" y="-970.836" font-family="Times,serif" font-size="14.00">Node10</text>
<text text-anchor="start" x="226.143" y="-955.836" font-family="Times,serif" font-size="14.00">mapindex = {Node12,Node13}</text>
<text text-anchor="start" x="226.143" y="-940.836" font-family="Times,serif" font-size="14.00">module = nn.CAddTable</text>
<text text-anchor="middle" x="312.643" y="-925.836" font-family="Times,serif" font-size="14.00">reverseMap = {}</text>
</a>
</g>
</g>
<!-- n10&#45;&gt;n5 -->
<g id="edge9" class="edge"><title>n10&#45;&gt;n5</title>
<path fill="none" stroke="black" d="M312.643,-903.674C312.643,-895.406 312.643,-886.724 312.643,-878.221"/>
<polygon fill="black" stroke="black" points="316.143,-877.977 312.643,-867.977 309.143,-877.977 316.143,-877.977"/>
</g>
<!-- n11 -->
<g id="node11" class="node"><title>n11</title>
<g id="a_node11"><a xlink:title="[/home/marcin/torch/install/share/lua/5.2/nngraph/init.lua]:69_">
<ellipse fill="none" stroke="black" cx="557.643" cy="-576.749" rx="133.787" ry="48.1667"/>
<text text-anchor="middle" x="557.643" y="-595.549" font-family="Times,serif" font-size="14.00">Node11</text>
<text text-anchor="start" x="471.143" y="-580.549" font-family="Times,serif" font-size="14.00">mapindex = {Node14,Node15}</text>
<text text-anchor="start" x="471.143" y="-565.549" font-family="Times,serif" font-size="14.00">module = nn.CAddTable</text>
<text text-anchor="middle" x="557.643" y="-550.549" font-family="Times,serif" font-size="14.00">reverseMap = {}</text>
</a>
</g>
</g>
<!-- n11&#45;&gt;n6 -->
<g id="edge10" class="edge"><title>n11&#45;&gt;n6</title>
<path fill="none" stroke="black" d="M557.643,-528.388C557.643,-520.119 557.643,-511.438 557.643,-502.935"/>
<polygon fill="black" stroke="black" points="561.143,-502.691 557.643,-492.691 554.143,-502.691 561.143,-502.691"/>
</g>
<!-- n12 -->
<g id="node12" class="node"><title>n12</title>
<g id="a_node12"><a xlink:title="[/home/marcin/torch/install/share/lua/5.2/nngraph/init.lua]:76_">
<ellipse fill="none" stroke="black" cx="133.643" cy="-1073.6" rx="133.787" ry="37.4533"/>
<text text-anchor="middle" x="133.643" y="-1084.9" font-family="Times,serif" font-size="14.00">Node12</text>
<text text-anchor="start" x="47.1432" y="-1069.9" font-family="Times,serif" font-size="14.00">module = nn.Linear(50 &#45;&gt; 256)</text>
<text text-anchor="middle" x="133.643" y="-1054.9" font-family="Times,serif" font-size="14.00">reverseMap = {}</text>
</a>
</g>
</g>
<!-- n12&#45;&gt;n10 -->
<g id="edge14" class="edge"><title>n12&#45;&gt;n10</title>
<path fill="none" stroke="black" d="M184.459,-1038.65C202.286,-1026.75 222.649,-1013.15 241.816,-1000.34"/>
<polygon fill="black" stroke="black" points="243.862,-1003.19 250.234,-994.721 239.974,-997.365 243.862,-1003.19"/>
</g>
<!-- n13 -->
<g id="node13" class="node"><title>n13</title>
<g id="a_node13"><a xlink:title="[/home/marcin/torch/install/share/lua/5.2/nngraph/init.lua]:76_">
<ellipse fill="none" stroke="black" cx="423.643" cy="-1073.6" rx="138.686" ry="37.4533"/>
<text text-anchor="middle" x="423.643" y="-1084.9" font-family="Times,serif" font-size="14.00">Node13</text>
<text text-anchor="start" x="333.643" y="-1069.9" font-family="Times,serif" font-size="14.00">module = nn.Linear(256 &#45;&gt; 256)</text>
<text text-anchor="middle" x="423.643" y="-1054.9" font-family="Times,serif" font-size="14.00">reverseMap = {}</text>
</a>
</g>
</g>
<!-- n13&#45;&gt;n10 -->
<g id="edge15" class="edge"><title>n13&#45;&gt;n10</title>
<path fill="none" stroke="black" d="M390.64,-1037.05C381.398,-1027.09 371.153,-1016.06 361.211,-1005.35"/>
<polygon fill="black" stroke="black" points="363.76,-1002.95 354.391,-998.003 358.63,-1007.71 363.76,-1002.95"/>
</g>
<!-- n14&#45;&gt;n11 -->
<g id="edge16" class="edge"><title>n14&#45;&gt;n11</title>
<path fill="none" stroke="black" d="M487.646,-661.437C495.715,-651.79 504.616,-641.149 513.287,-630.782"/>
<polygon fill="black" stroke="black" points="516.124,-632.845 519.855,-622.929 510.755,-628.354 516.124,-632.845"/>
</g>
<!-- n15 -->
<g id="node15" class="node"><title>n15</title>
<g id="a_node15"><a xlink:title="[/home/marcin/torch/install/share/lua/5.2/nngraph/init.lua]:76_">
<ellipse fill="none" stroke="black" cx="624.643" cy="-952.036" rx="138.686" ry="37.4533"/>
<text text-anchor="middle" x="624.643" y="-963.336" font-family="Times,serif" font-size="14.00">Node15</text>
<text text-anchor="start" x="534.643" y="-948.336" font-family="Times,serif" font-size="14.00">module = nn.Linear(256 &#45;&gt; 256)</text>
<text text-anchor="middle" x="624.643" y="-933.336" font-family="Times,serif" font-size="14.00">reverseMap = {}</text>
</a>
</g>
</g>
<!-- n15&#45;&gt;n11 -->
<g id="edge17" class="edge"><title>n15&#45;&gt;n11</title>
<path fill="none" stroke="black" d="M627.487,-914.351C630.673,-858.347 632.328,-748.765 605.643,-660.833 602.777,-651.388 598.666,-641.864 594.041,-632.805"/>
<polygon fill="black" stroke="black" points="597.085,-631.075 589.271,-623.92 590.917,-634.386 597.085,-631.075"/>
</g>
<!-- n16 -->
<g id="node16" class="node"><title>n16</title>
<g id="a_node16"><a xlink:title="[Model.lua]:5_">
<ellipse fill="yellow" stroke="black" cx="167.643" cy="-1195.16" rx="94.0904" ry="48.1667"/>
<text text-anchor="middle" x="167.643" y="-1213.96" font-family="Times,serif" font-size="14.00">INPUT[t]</text>
<text text-anchor="middle" x="167.643" y="-1198.96" font-family="Times,serif" font-size="14.00"> (16)</text>
<text text-anchor="start" x="109.143" y="-1183.96" font-family="Times,serif" font-size="14.00">module = nn.Identity</text>
<text text-anchor="middle" x="167.643" y="-1168.96" font-family="Times,serif" font-size="14.00">reverseMap = {}</text>
</a>
</g>
</g>
<!-- n16&#45;&gt;n12 -->
<g id="edge18" class="edge"><title>n16&#45;&gt;n12</title>
<path fill="none" stroke="black" d="M154.303,-1147.25C151.816,-1138.5 149.219,-1129.37 146.739,-1120.65"/>
<polygon fill="black" stroke="black" points="150.103,-1119.68 144.002,-1111.02 143.37,-1121.6 150.103,-1119.68"/>
</g>
<!-- n17 -->
<g id="node17" class="node"><title>n17</title>
<g id="a_node17"><a xlink:title="[Model.lua]:7_">
<ellipse fill="lightblue" stroke="black" cx="388.643" cy="-1195.16" rx="108.789" ry="48.1667"/>
<text text-anchor="middle" x="388.643" y="-1213.96" font-family="Times,serif" font-size="14.00">HIDDEN STATE[t&#45;1][1]</text>
<text text-anchor="middle" x="388.643" y="-1198.96" font-family="Times,serif" font-size="14.00"> (17)</text>
<text text-anchor="start" x="319.643" y="-1183.96" font-family="Times,serif" font-size="14.00">module = nn.Identity</text>
<text text-anchor="middle" x="388.643" y="-1168.96" font-family="Times,serif" font-size="14.00">reverseMap = {}</text>
</a>
</g>
</g>
<!-- n17&#45;&gt;n13 -->
<g id="edge19" class="edge"><title>n17&#45;&gt;n13</title>
<path fill="none" stroke="black" d="M402.376,-1147.25C404.936,-1138.5 407.609,-1129.37 410.162,-1120.65"/>
<polygon fill="black" stroke="black" points="413.53,-1121.6 412.98,-1111.02 406.812,-1119.63 413.53,-1121.6"/>
</g>
<!-- n18 -->
<g id="node18" class="node"><title>n18</title>
<g id="a_node18"><a xlink:title="[Model.lua]:7_">
<ellipse fill="lightblue" stroke="black" cx="624.643" cy="-1195.16" rx="108.789" ry="48.1667"/>
<text text-anchor="middle" x="624.643" y="-1213.96" font-family="Times,serif" font-size="14.00">HIDDEN STATE[t&#45;1][2]</text>
<text text-anchor="middle" x="624.643" y="-1198.96" font-family="Times,serif" font-size="14.00"> (18)</text>
<text text-anchor="start" x="555.643" y="-1183.96" font-family="Times,serif" font-size="14.00">module = nn.Identity</text>
<text text-anchor="middle" x="624.643" y="-1168.96" font-family="Times,serif" font-size="14.00">reverseMap = {}</text>
</a>
</g>
</g>
<!-- n18&#45;&gt;n15 -->
<g id="edge21" class="edge"><title>n18&#45;&gt;n15</title>
<path fill="none" stroke="black" d="M624.643,-1146.81C624.643,-1104.23 624.643,-1042.06 624.643,-999.7"/>
<polygon fill="black" stroke="black" points="628.143,-999.648 624.643,-989.648 621.143,-999.648 628.143,-999.648"/>
</g>
<!-- n19 -->
<g id="node19" class="node"><title>n19</title>
<g id="a_node19"><a xlink:title="[[C]]:&#45;1_&#45;1">
<ellipse fill="none" stroke="black" cx="190.643" cy="-1327.32" rx="77.5641" ry="48.1667"/>
<text text-anchor="middle" x="190.643" y="-1346.12" font-family="Times,serif" font-size="14.00">Node19</text>
<text text-anchor="start" x="143.643" y="-1331.12" font-family="Times,serif" font-size="14.00">selectindex = 1</text>
<text text-anchor="start" x="143.643" y="-1316.12" font-family="Times,serif" font-size="14.00">input = {}</text>
<text text-anchor="middle" x="190.643" y="-1301.12" font-family="Times,serif" font-size="14.00">reverseMap = {}</text>
</a>
</g>
</g>
<!-- n19&#45;&gt;n16 -->
<g id="edge22" class="edge"><title>n19&#45;&gt;n16</title>
<path fill="none" stroke="black" d="M182.34,-1279.33C180.841,-1270.85 179.265,-1261.93 177.722,-1253.2"/>
<polygon fill="black" stroke="black" points="181.121,-1252.32 175.935,-1243.08 174.228,-1253.54 181.121,-1252.32"/>
</g>
<!-- n20 -->
<g id="node20" class="node"><title>n20</title>
<g id="a_node20"><a xlink:title="[[C]]:&#45;1_&#45;2">
<ellipse fill="none" stroke="black" cx="388.643" cy="-1327.32" rx="77.5641" ry="48.1667"/>
<text text-anchor="middle" x="388.643" y="-1346.12" font-family="Times,serif" font-size="14.00">Node20</text>
<text text-anchor="start" x="341.643" y="-1331.12" font-family="Times,serif" font-size="14.00">selectindex = 2</text>
<text text-anchor="start" x="341.643" y="-1316.12" font-family="Times,serif" font-size="14.00">input = {}</text>
<text text-anchor="middle" x="388.643" y="-1301.12" font-family="Times,serif" font-size="14.00">reverseMap = {}</text>
</a>
</g>
</g>
<!-- n20&#45;&gt;n17 -->
<g id="edge23" class="edge"><title>n20&#45;&gt;n17</title>
<path fill="none" stroke="black" d="M388.643,-1278.96C388.643,-1270.69 388.643,-1262.01 388.643,-1253.51"/>
<polygon fill="black" stroke="black" points="392.143,-1253.26 388.643,-1243.26 385.143,-1253.26 392.143,-1253.26"/>
</g>
<!-- n21 -->
<g id="node21" class="node"><title>n21</title>
<g id="a_node21"><a xlink:title="[[C]]:&#45;1_&#45;3">
<ellipse fill="none" stroke="black" cx="593.643" cy="-1327.32" rx="77.5641" ry="48.1667"/>
<text text-anchor="middle" x="593.643" y="-1346.12" font-family="Times,serif" font-size="14.00">Node21</text>
<text text-anchor="start" x="546.643" y="-1331.12" font-family="Times,serif" font-size="14.00">selectindex = 3</text>
<text text-anchor="start" x="546.643" y="-1316.12" font-family="Times,serif" font-size="14.00">input = {}</text>
<text text-anchor="middle" x="593.643" y="-1301.12" font-family="Times,serif" font-size="14.00">reverseMap = {}</text>
</a>
</g>
</g>
<!-- n21&#45;&gt;n18 -->
<g id="edge24" class="edge"><title>n21&#45;&gt;n18</title>
<path fill="none" stroke="black" d="M604.747,-1279.7C606.792,-1271.11 608.948,-1262.06 611.057,-1253.2"/>
<polygon fill="black" stroke="black" points="614.496,-1253.87 613.408,-1243.33 607.686,-1252.25 614.496,-1253.87"/>
</g>
<!-- n22 -->
<g id="node22" class="node"><title>n22</title>
<g id="a_node22"><a xlink:title="[[C]]:&#45;1_ split at [...e/marcin/torch/install/share/lua/5.2/nngraph/gmodule.lua]:96&#45;mnode">
<ellipse fill="none" stroke="black" cx="388.643" cy="-1448.88" rx="80.7205" ry="37.4533"/>
<text text-anchor="middle" x="388.643" y="-1460.18" font-family="Times,serif" font-size="14.00">Node22</text>
<text text-anchor="start" x="339.643" y="-1445.18" font-family="Times,serif" font-size="14.00">nSplitOutputs = 3</text>
<text text-anchor="middle" x="388.643" y="-1430.18" font-family="Times,serif" font-size="14.00">reverseMap = {}</text>
</a>
</g>
</g>
<!-- n22&#45;&gt;n19 -->
<g id="edge25" class="edge"><title>n22&#45;&gt;n19</title>
<path fill="none" stroke="black" d="M340.46,-1418.79C314.637,-1403.19 282.486,-1383.78 254.596,-1366.94"/>
<polygon fill="black" stroke="black" points="256.073,-1363.74 245.704,-1361.57 252.455,-1369.74 256.073,-1363.74"/>
</g>
<!-- n22&#45;&gt;n20 -->
<g id="edge26" class="edge"><title>n22&#45;&gt;n20</title>
<path fill="none" stroke="black" d="M388.643,-1411.36C388.643,-1403.27 388.643,-1394.5 388.643,-1385.79"/>
<polygon fill="black" stroke="black" points="392.143,-1385.65 388.643,-1375.65 385.143,-1385.65 392.143,-1385.65"/>
</g>
<!-- n22&#45;&gt;n21 -->
<g id="edge27" class="edge"><title>n22&#45;&gt;n21</title>
<path fill="none" stroke="black" d="M438.007,-1419.09C465.278,-1403.19 499.486,-1383.24 528.881,-1366.09"/>
<polygon fill="black" stroke="black" points="530.962,-1368.93 537.837,-1360.87 527.435,-1362.88 530.962,-1368.93"/>
</g>
<!-- n23 -->
<g id="node23" class="node"><title>n23</title>
<g id="a_node23"><a xlink:title="[[C]]:&#45;1_">
<ellipse fill="none" stroke="black" cx="388.643" cy="-1559.84" rx="77.5641" ry="37.4533"/>
<text text-anchor="middle" x="388.643" y="-1571.14" font-family="Times,serif" font-size="14.00">Node23</text>
<text text-anchor="start" x="341.643" y="-1556.14" font-family="Times,serif" font-size="14.00">input = {}</text>
<text text-anchor="middle" x="388.643" y="-1541.14" font-family="Times,serif" font-size="14.00">reverseMap = {}</text>
</a>
</g>
</g>
<!-- n23&#45;&gt;n22 -->
<g id="edge28" class="edge"><title>n23&#45;&gt;n22</title>
<path fill="none" stroke="black" d="M388.643,-1522.25C388.643,-1514.08 388.643,-1505.3 388.643,-1496.77"/>
<polygon fill="black" stroke="black" points="392.143,-1496.55 388.643,-1486.55 385.143,-1496.55 392.143,-1496.55"/>
</g>
</g>
</svg>
